<svg viewBox="0 0 400 300" xmlns="http://www.w3.org/2000/svg" xmlns:xlink="http://www.w3.org/1999/xlink"><linearGradient id="a" gradientUnits="userSpaceOnUse" x1="182.47" x2="119.91" y1="176.95" y2="227.97"><stop offset="0" stop-color="#d4a397"/><stop offset="1" stop-color="#fff"/></linearGradient><path d="m194.51 282.6-172.51-101.95c-5.49-3.08-10.2-8.15-4.85-11.46l173.14-99.78c2.6-1.61 6.54-2.66 9.18-1.13l181.07 105.09c5.49 3.19 6.48 12.1 1 15.29l-164.29 93.77a22.94 22.94 0 0 1 -22.74.17z" fill="#ffa87d"/><ellipse cx="196" cy="179.4" fill="#fffcc7" rx="101.3" ry="50.22"/><path d="m154.46 162.26-22.67-7.26-76 45.58c9.47 8.15 93.08 54.54 103.67 61.27l92.12-61.68c-1.11-2.57-95.58-35.49-97.12-37.91z" fill="url(#a)"/><ellipse cx="158.52" cy="65.58" fill="#7ea83b" rx="13.36" ry="16.18" transform="matrix(.91161862 -.41103709 .41103709 .91161862 -12.95 70.96)"/><path d="m150.91 51.32 4.82-2.22 13.79 29.21-5.44 2.45" fill="#7ea83b"/><ellipse cx="161.9" cy="64.06" fill="#a2cb6b" rx="13.36" ry="16.18" transform="matrix(.91161862 -.41103709 .41103709 .91161862 -12.02 72.21)"/><ellipse cx="161.9" cy="64.06" fill="#ecffcf" rx="11.68" ry="14.15" transform="matrix(.91161862 -.41103709 .41103709 .91161862 -12.02 72.21)"/><g fill="#b5e47c"><path d="m159.35 54.48-.58-1.32a1 1 0 0 0 -1.37-.36 1 1 0 0 0 -.36 1.37l.58 1.32a1 1 0 0 0 1.37.36 1 1 0 0 0 .36-1.37z"/><path d="m155.86 58.47a1 1 0 0 1 -.57-.35 1 1 0 0 0 -1.37-.36 1 1 0 0 0 -.36 1.37 3.23 3.23 0 0 0 1.77 1.27 1 1 0 0 0 .53-1.93z"/><path d="m154.44 62.49a2.27 2.27 0 0 0 -.93.11c-1.22.4-.7 2.33.53 1.93a.66.66 0 0 1 .4 0 1 1 0 0 0 1-1 1 1 0 0 0 -1-1.04z"/><path d="m157.14 69.17a1 1 0 0 0 -1.23-.7 2.28 2.28 0 0 0 -1.26 1c-.61 1.13 1.11 2.14 1.73 1 0-.09.05-.11.05-.12a1 1 0 0 0 .71-1.18z"/><path d="m158.53 70.91a6.74 6.74 0 0 0 -.59 1.56c-.3 1.25 1.63 1.79 1.93.53a4.56 4.56 0 0 1 .39-1.08c.59-1.14-1.14-2.15-1.73-1.01z"/><path d="m164.49 74a2.06 2.06 0 0 1 -.13-.89c.08-1.29-1.92-1.28-2 0a3.57 3.57 0 0 0 .2 1.42 1 1 0 0 0 1.23.7 1 1 0 0 0 .7-1.23z"/><path d="m169 73a3.26 3.26 0 0 1 -.29-.76 1 1 0 0 0 -1.93.53 5.47 5.47 0 0 0 .49 1.24c.6 1.12 2.33.11 1.73-1.01z"/><path d="m172 68.87a1 1 0 0 0 -1.23-.7.75.75 0 0 1 -.29-.06c-1.23-.39-1.75 1.54-.53 1.93a2.77 2.77 0 0 0 1.35.06 1 1 0 0 0 .7-1.23z"/><path d="m172 62.24-1.49.16a1 1 0 0 0 -1 1 1 1 0 0 0 1 1l1.49-.16a1 1 0 0 0 1-1 1 1 0 0 0 -1-1z"/><path d="m169.9 57.76a1 1 0 0 0 -1.37-.36l-.81.59a1 1 0 0 0 -.36 1.37 1 1 0 0 0 1.37.36l.81-.59a1 1 0 0 0 .36-1.37z"/><path d="m164.62 54.3-.47.92c-.59 1.14 1.14 2.16 1.73 1l.47-.92c.58-1.13-1.14-2.14-1.73-1z"/></g><path d="m165.17 60.69c-.52-1.27-1.43-2.76-3-2.86a2.17 2.17 0 0 0 -1.83.81l-.14.06a2.07 2.07 0 0 0 -.68.66c-1.17.89-1.43 3-1.24 4.24a4.59 4.59 0 0 0 2.93 3.77 2 2 0 0 0 .68.06 4 4 0 0 0 .5.12c4.02.59 3.76-4.46 2.78-6.86z" fill="#fefffd"/><path d="m106.34 132.56s-3.16 79.91 89.51 79.91c93.28 0 90.67-72.37 89.51-79.91s-179.02 0-179.02 0z" fill="#68e1fd"/><path d="m106.34 132.56s-3.16 79.91 89.51 79.91c93.28 0 90.67-72.37 89.51-79.91s-179.02 0-179.02 0z" fill="#093e3e" opacity=".29"/><path d="m164.51 185.86c-10.73-16.36-16.44-35.44-19-54.74-22.8.76-39.13 1.45-39.13 1.45s-3.05 77.36 85.12 79.84a88.47 88.47 0 0 1 -26.99-26.55z" fill="#093e3e" opacity=".29"/><ellipse cx="195.85" cy="132.56" fill="#68e1fd" rx="89.51" ry="46.83"/><ellipse cx="195.77" cy="132.56" fill="#093e3e" opacity=".66" rx="81.77" ry="41.15"/><path d="m182 117.11c-4 3.4-8.63 4.38-13 2.18 2.55.19 5.27.17 7.5-1 2.88-1.56 3.93-4.73 5.57-7.32 2.45-3.88 5.71-6.91 10.44-7.33a2.14 2.14 0 0 1 .86.09 5.76 5.76 0 0 0 .1-1c0-6.84-7 1.56-9.71-2.91a3.93 3.93 0 0 1 -.55-1.61c-.42 1-.82 2-1.22 3-2.21 2.5-4 5.37-6.33 8a16.66 16.66 0 0 1 -14.7 5.67 19 19 0 0 0 15.04-9.59c3.27-5.35 4.12-11.68 8.13-16.64a2.11 2.11 0 0 1 .54-.47 6.27 6.27 0 0 0 -1.31-1.18c-5.62-4-7.21 7.73-10.25 5.34a2.23 2.23 0 0 1 -.88-2.3 12 12 0 0 0 -1 1.37c-2.06 3.46-1.81 7.57-3.55 11.1-2.63 5.31-8.89 5.16-13.44 7.87 1.9-2.3 4.66-3.06 7-5.08 3.09-2.67 4.53-6.66 5.49-10.51.8-3.2 1.23-6.64 3.48-9.21a9.56 9.56 0 0 1 2.94-2.2c-1.64-.79-4.81-.66-11.07 4.47a16.09 16.09 0 0 1 -2.86 1.94c-2.82 5-4.31 11.26-5.17 16.49a2.08 2.08 0 0 1 -.37.9c-.16-3.64-.57-7.28 0-10.91a41.58 41.58 0 0 1 1.43-6.23c-1.94-1.05-2.72-3.16-6.86 2.87-7 10.12-.46 21.51-.46 21.51 12.74 15.67 41.66 10.45 41.64 3.77 0-4-2-4.72-3.73-5.3-.49.78-.95 1.59-1.42 2.4-.73.58-1.47 1.17-2.28 1.82z" fill="#a9cb1c"/><path d="m166.76 94.85c-1 3.85-2.4 7.84-5.49 10.51-2.34 2-5.09 2.78-7 5.08 4.54-2.71 10.81-2.56 13.44-7.87 1.74-3.52 1.5-7.63 3.55-11.1a12 12 0 0 1 1-1.37c.37-2.17 3-4.56 2.48-5.29a4.06 4.06 0 0 0 -1.53-1.38 9.56 9.56 0 0 0 -2.94 2.2c-2.27 2.58-2.71 6.01-3.51 9.22z" fill="#8baa07"/><path d="m176 105.29a19 19 0 0 1 -15 9.42 16.66 16.66 0 0 0 14.7-5.67c2.31-2.59 4.11-5.45 6.33-8 .4-1 .8-2 1.22-3-.38-3.46 3.91-6.78 1.34-9.94a2.11 2.11 0 0 0 -.54.47c-3.98 5.05-4.83 11.38-8.05 16.72z" fill="#8baa07"/><path d="m183.3 111c-.41-2.78 9.06-1.69 10.12-7.35a2.14 2.14 0 0 0 -.86-.09c-4.72.41-8 3.45-10.44 7.33-1.64 2.6-2.69 5.76-5.57 7.32-2.23 1.21-4.94 1.23-7.5 1 4.36 2.2 9 1.21 13-2.18.77-.65 1.51-1.24 2.25-1.76.47-.81.93-1.62 1.42-2.4-1.19-.32-2.24-.63-2.42-1.87z" fill="#8baa07"/><path d="m153.71 107.23a2.08 2.08 0 0 0 .37-.9c.86-5.22 2.35-11.47 5.17-16.49-2 1-3.2.75-4.13.25a41.58 41.58 0 0 0 -1.43 6.23c-.55 3.63-.14 7.26.02 10.91z" fill="#8baa07"/><path d="m145.6 134.57s7-23.79.59-29.41-5.71 2-9 1.29-1.68-11-7.26-9.39-.22 8-2.68 10.28-7.81-6.69-10.71-2.45 3.12 5 1.56 8.63-9.59-.15-8.93 5.87 9.82 2.9 8.7 6.69-10.93 1.34-4.69 7.59 29.75 3.33 32.42.9z" fill="#7aa901"/><path d="m145.6 134.57s-1.75-9.48-1.35-13.15-.26-4.4-.91-7.9-2-5-2-4.58 1.56 7.78-.89 10.45-3.57-1.65-4.91-4.17-4.14-3.09-3.92-5.74-1.66-5.75-1.66-5.75 2 8.66 1.56 11.49-3.57-2.14-5.13-3.45a11 11 0 0 0 -4.46-1.75s8.17 8.48 7.1 10.26-7.55-3.12-9.55-3.12 4.24 6.47 5.8 6.47 7.87.22 7.06 1.34-7 1.34-9.36 2.9a48.34 48.34 0 0 1 -7.07 3.35s8.4-1.34 13.12-2 6.53-2.23 8.2 0 8.37 5.35 8.37 5.35z" fill="#759b00"/><path d="m269.16 117.21c0 5.27-2.28 9.41-6.78 11.28 1.81-1.82 3.55-3.89 4.08-6.37.69-3.21-1-6.06-1.94-9-1.35-4.38-1.54-8.84 1.22-12.69a2.14 2.14 0 0 1 .63-.59 5.76 5.76 0 0 0 -.72-.75c-5.18-4.48-3.39 6.36-8.52 5.48a3.93 3.93 0 0 1 -1.58-.63c.47 1 1 1.9 1.45 2.85.46 3.31 1.46 6.54 1.93 10a16.66 16.66 0 0 1 -5.24 14.85 19 19 0 0 0 2.54-17.46c-1.93-6-6.2-10.72-7.36-17a2.11 2.11 0 0 1 0-.71 6.27 6.27 0 0 0 -1.69.21c-6.67 1.69 1.18 10.5-2.6 11.26a2.23 2.23 0 0 1 -2.32-.82 12 12 0 0 0 .41 1.63c1.3 3.82 4.58 6.3 6.12 9.91 2.33 5.45-1.86 10.11-2.75 15.33-.51-2.94.7-5.53.69-8.62 0-4.09-2.11-7.77-4.42-11-1.92-2.69-4.25-5.25-4.74-8.64a9.56 9.56 0 0 1 .24-3.66c-1.67.73-3.63 3.22-3.8 11.32a16.09 16.09 0 0 1 -.38 3.44c2 5.4 5.75 10.6 9.16 14.65a2.08 2.08 0 0 1 .44.86c-2.87-2.25-5.9-4.3-8.3-7.08a41.58 41.58 0 0 1 -3.8-5.13c-2.06.79-4.17 0-2.28 7.08 3.17 11.86 16 14.34 16 14.34 20.19.51 35-24.87 29.93-29.19-3-2.56-4.89-1.54-6.45-.61.28.88.59 1.76.9 2.64-.03.87-.06 1.82-.07 2.82z" fill="#a9cb1c"/><path d="m242.31 114.35c2.31 3.23 4.4 6.92 4.42 11 0 3.09-1.2 5.68-.69 8.62.89-5.21 5.08-9.88 2.75-15.33-1.54-3.61-4.83-6.1-6.12-9.91a12 12 0 0 1 -.41-1.63c-1.41-1.69-1.5-5.26-2.4-5.32a4.06 4.06 0 0 0 -2 .27 9.56 9.56 0 0 0 -.24 3.66c.45 3.39 2.78 5.95 4.69 8.64z" fill="#8baa07"/><path d="m256.23 114.16a19 19 0 0 1 -2.54 17.46 16.66 16.66 0 0 0 5.24-14.85c-.47-3.44-1.47-6.67-1.93-10-.49-.95-1-1.89-1.45-2.85-2.88-2-2.61-7.38-6.68-7.48a2.11 2.11 0 0 0 0 .71c1.13 6.29 5.42 11.05 7.36 17.01z" fill="#8baa07"/><path d="m265.37 112.31c-2.38-1.49 4.61-8 1-12.47a2.14 2.14 0 0 0 -.63.59c-2.75 3.86-2.57 8.31-1.22 12.69.91 2.94 2.63 5.79 1.94 9-.53 2.48-2.28 4.56-4.08 6.37 4.5-1.88 6.74-6 6.78-11.28 0-1 0-1.95.13-2.85-.31-.88-.63-1.76-.9-2.64-1.07.64-1.99 1.28-3.02.59z" fill="#8baa07"/><path d="m243.24 132.32a2.08 2.08 0 0 0 -.44-.86c-3.41-4.05-7.19-9.24-9.16-14.65-.52 2.16-1.5 2.92-2.5 3.3a41.58 41.58 0 0 0 3.8 5.13c2.4 2.76 5.43 4.83 8.3 7.08z" fill="#8baa07"/><path d="m237.92 120.54s7-23.79.59-29.41-5.71 2-9 1.29-1.68-11-7.26-9.39-.22 8-2.68 10.28-7.81-6.69-10.71-2.45 3.12 5 1.56 8.63-9.59-.15-8.93 5.87 9.82 2.9 8.7 6.69-10.93 1.34-4.69 7.59 29.76 3.36 32.42.9z" fill="#7aa901"/><path d="m237.92 120.54s-1.75-9.48-1.35-13.15-.26-4.4-.91-7.9-2-5-2-4.58 1.56 7.78-.89 10.45-3.57-1.65-4.91-4.17-4.14-3.09-3.92-5.74-1.66-5.75-1.66-5.75 2 8.66 1.56 11.49-3.57-2.14-5.13-3.45a11 11 0 0 0 -4.45-1.74s8.17 8.48 7.1 10.26-7.55-3.12-9.55-3.12 4.24 6.47 5.8 6.47 7.87.22 7.06 1.34-7 1.34-9.36 2.9a48.34 48.34 0 0 1 -7.07 3.35s8.4-1.34 13.12-2 6.53-2.23 8.2 0 8.36 5.34 8.36 5.34z" fill="#759b00"/><path d="m216.55 171.94c-4.16 3.25-8.78 4.06-13.05 1.7 2.55.29 5.26.36 7.53-.76 2.94-1.45 4.1-4.58 5.84-7.11 2.59-3.78 6-6.7 10.7-6.94a2.14 2.14 0 0 1 .86.13 5.76 5.76 0 0 0 .14-1c.29-6.84-7.1 1.3-9.59-3.27a3.93 3.93 0 0 1 -.49-1.63c-.46 1-.89 1.93-1.33 2.91-2.3 2.42-4.22 5.21-6.62 7.72a16.66 16.66 0 0 1 -14.89 5.12 19 19 0 0 0 15.25-8.86c3.47-5.22 4.54-11.52 8.74-16.32a2.11 2.11 0 0 1 .55-.45 6.27 6.27 0 0 0 -1.22-1.19c-5.47-4.18-7.49 7.45-10.44 5a2.23 2.23 0 0 1 -.8-2.33 12 12 0 0 0 -1 1.33c-2.18 3.39-2.09 7.5-4 11-2.82 5.21-9.08 4.83-13.72 7.37 2-2.23 4.77-2.89 7.18-4.82 3.19-2.55 4.78-6.48 5.88-10.3.91-3.17 1.47-6.59 3.82-9.08a9.56 9.56 0 0 1 3-2.09c-1.61-.85-4.78-.84-11.23 4.06a16.09 16.09 0 0 1 -2.93 1.83c-3 4.91-4.72 11.09-5.78 16.28a2.08 2.08 0 0 1 -.4.88c0-3.65-.3-7.29.39-10.9a41.58 41.58 0 0 1 1.66-6.17c-1.9-1.12-2.6-3.26-7 2.61-7.32 9.85-1.26 21.48-1.26 21.48 12.15 16.13 41.25 12 41.47 5.31.13-4-1.83-4.79-3.53-5.43-.51.76-1 1.56-1.51 2.35-.66.39-1.43.95-2.22 1.57z" fill="#a9cb1c"/><path d="m202.11 149.13c-1.1 3.82-2.69 7.75-5.88 10.3-2.41 1.93-5.19 2.59-7.18 4.82 4.64-2.54 10.9-2.16 13.72-7.37 1.87-3.46 1.78-7.57 4-11a12 12 0 0 1 1-1.33c.45-2.15 3.19-4.44 2.67-5.19a4.06 4.06 0 0 0 -1.48-1.43 9.56 9.56 0 0 0 -3 2.09c-2.38 2.52-2.96 5.98-3.85 9.11z" fill="#8baa07"/><path d="m210.9 159.9a19 19 0 0 1 -15.25 8.86 16.66 16.66 0 0 0 14.89-5.12c2.4-2.5 4.31-5.3 6.62-7.72.44-1 .87-1.94 1.33-2.91-.25-3.47 4.16-6.63 1.71-9.88a2.11 2.11 0 0 0 -.55.45c-4.2 4.81-5.28 11.1-8.75 16.32z" fill="#8baa07"/><path d="m218 165.92c-.31-2.79 9.12-1.35 10.39-7a2.14 2.14 0 0 0 -.86-.13c-4.73.24-8.11 3.15-10.7 6.94-1.74 2.54-2.9 5.66-5.84 7.11-2.27 1.12-5 1-7.53.76 4.27 2.36 8.9 1.54 13.05-1.7.79-.62 1.55-1.18 2.32-1.67.5-.79 1-1.59 1.51-2.35-1.13-.41-2.17-.75-2.34-1.96z" fill="#8baa07"/><path d="m188.6 161a2.08 2.08 0 0 0 .4-.88c1.05-5.19 2.77-11.37 5.78-16.28-2 .93-3.22.64-4.14.09a41.58 41.58 0 0 0 -1.66 6.17c-.67 3.62-.4 7.27-.38 10.9z" fill="#8baa07"/><path d="m198.21 141.87s7-23.79.59-29.41-5.71 2-9 1.29-1.68-11-7.26-9.39-.22 8-2.68 10.28-7.81-6.69-10.71-2.45 3.12 5 1.56 8.63-9.59-.15-8.93 5.87 9.82 2.9 8.7 6.69-10.93 1.34-4.69 7.59 29.75 3.35 32.42.9z" fill="#7aa901"/><path d="m198.21 141.87s-1.75-9.48-1.35-13.15-.26-4.4-.91-7.9-2-5-2-4.58 1.56 7.78-.89 10.45-3.57-1.65-4.91-4.17-4.14-3.09-3.92-5.74-1.66-5.75-1.66-5.75 2 8.66 1.56 11.49-3.57-2.14-5.13-3.45a11 11 0 0 0 -4.46-1.75s8.17 8.48 7.1 10.26-7.55-3.12-9.55-3.12 4.24 6.47 5.8 6.47 7.87.22 7.06 1.34-7 1.34-9.36 2.9a48.34 48.34 0 0 1 -7.07 3.35s8.4-1.34 13.12-2 6.53-2.23 8.2 0 8.37 5.35 8.37 5.35z" fill="#759b00"/><path d="m206.86 107.54c5.24-.59 9.61 1.15 12 5.39-2-1.58-4.29-3.07-6.81-3.3-3.26-.3-5.89 1.75-8.7 3-4.19 1.86-8.59 2.57-12.75.3a2.14 2.14 0 0 1 -.66-.56 5.76 5.76 0 0 0 -.66.81c-3.83 5.67 6.72 2.61 6.45 7.81a3.93 3.93 0 0 1 -.44 1.64c.89-.58 1.77-1.18 2.66-1.78 3.23-.85 6.32-2.23 9.68-3.1a16.66 16.66 0 0 1 15.37 3.45 19 19 0 0 0 -17.63-.45c-5.69 2.63-9.91 7.42-16 9.32a2.11 2.11 0 0 1 -.7.09 6.27 6.27 0 0 0 .41 1.65c2.47 6.43 10.29-2.42 11.49 1.25a2.23 2.23 0 0 1 -.54 2.4 12 12 0 0 0 1.57-.6c3.63-1.74 5.71-5.29 9.12-7.25 5.14-3 10.26.65 15.55.91-2.86.86-5.58 0-8.64.34-4.05.5-7.47 3-10.41 5.69-2.44 2.22-4.71 4.84-8 5.73a9.56 9.56 0 0 1 -3.66.2c.93 1.57 3.63 3.22 11.69 2.43a16.09 16.09 0 0 1 3.46 0c5.13-2.6 9.84-7 13.46-10.84a2.08 2.08 0 0 1 .81-.54c-1.89 3.12-3.57 6.37-6 9.08a41.58 41.58 0 0 1 -4.64 4.38c1 2 .51 4.14 7.3 1.43 11.4-4.55 12.33-17.63 12.33-17.63-1.97-20.15-28.97-31.87-32.63-26.3-2.19 3.3-1 5 .16 6.47.84-.38 1.67-.8 2.51-1.21.91-.02 1.85-.1 2.85-.21z" fill="#a9cb1c"/><path d="m207.21 134.54c2.94-2.67 6.35-5.19 10.41-5.69 3.06-.38 5.78.52 8.64-.34-5.28-.27-10.41-3.87-15.55-.91-3.41 2-5.48 5.51-9.12 7.25a12 12 0 0 1 -1.57.6c-1.51 1.6-5 2.11-5 3a4.06 4.06 0 0 0 .51 2 9.56 9.56 0 0 0 3.66-.2c3.31-.87 5.57-3.49 8.02-5.71z" fill="#8baa07"/><path d="m205.37 120.75a19 19 0 0 1 17.63.45 16.66 16.66 0 0 0 -15.37-3.45c-3.36.87-6.45 2.25-9.68 3.1-.88.6-1.76 1.2-2.66 1.78-1.61 3.09-7 3.47-6.63 7.52a2.11 2.11 0 0 0 .7-.09c6.1-1.89 10.31-6.68 16.01-9.31z" fill="#8baa07"/><path d="m202.45 111.88c-1.2 2.54-8.47-3.63-12.5.49a2.14 2.14 0 0 0 .66.56c4.16 2.28 8.56 1.56 12.75-.3 2.81-1.25 5.44-3.3 8.7-3 2.52.23 4.79 1.72 6.81 3.3-2.4-4.25-6.77-6-12-5.39-1 .11-1.94.19-2.85.21-.84.41-1.68.83-2.51 1.21.75 1.04 1.49 1.83.94 2.92z" fill="#8baa07"/><path d="m224.94 131.49a2.08 2.08 0 0 0 -.81.54c-3.62 3.87-8.32 8.23-13.46 10.84 2.21.26 3.08 1.15 3.57 2.09a41.58 41.58 0 0 0 4.64-4.38c2.48-2.72 4.12-5.97 6.06-9.09z" fill="#8baa07"/><path d="m237.26 170.35s23.42-8.15 24.26-16.63-4.92-3.51-6.27-6.53 7.93-7.75 3.41-11.37-6.67 4.5-9.92 3.8.9-10.25-4.24-10.14-2.24 5.44-6.11 6.29-5.46-7.89-10-3.84 3.35 9.67-.38 11-7.45-8.11-8.9.6 14.6 26.08 18.15 26.82z" fill="#7aa901"/><path d="m237.26 170.35s6.69-6.94 9.91-8.75 3.43-2.77 5.89-5.34 2.9-4.52 2.57-4.28-5.42 5.79-9 5.36-.74-3.86.54-6.42.11-5.17 2.39-6.53 3.71-4.69 3.71-4.69-5.87 6.67-8.44 8-.33-4.15-.18-6.18a11 11 0 0 0 -1.17-4.65s-2.14 11.58-4.22 11.75-1.85-8-3-9.59-2.79 7.21-1.89 8.48 4.4 6.53 3 6.52-5.15-4.9-7.81-5.93a48.34 48.34 0 0 1 -6.84-3.8s6 6.05 9.27 9.51 5.62 4 4.77 6.67.5 9.87.5 9.87z" fill="#759b00"/><ellipse cx="237.92" cy="120.54" fill="#362f44" rx="6.47" ry="8.25"/><path d="m241.61 118a5.54 5.54 0 0 0 -1.35-2.74 1 1 0 1 0 -1.41 1.41 3.64 3.64 0 0 1 .84 1.86 1 1 0 0 0 1.23.7 1 1 0 0 0 .69-1.23z" fill="#776f93"/><path d="m241.11 120a1 1 0 0 0 0 2 1 1 0 0 0 0-2z" fill="#776f93"/><ellipse cx="196" cy="148.81" fill="#362f44" rx="8.25" ry="6.47" transform="matrix(.99310942 -.11719074 .11719074 .99310942 -16.09 24)"/><path d="m198.95 152.16a5.54 5.54 0 0 0 2.56-1.66 1 1 0 0 0 -1.57-1.24 3.64 3.64 0 0 1 -1.75 1 1 1 0 0 0 -.55 1.3 1 1 0 0 0 1.31.6z" fill="#776f93"/><path d="m196.86 151.91a1 1 0 0 0 -2 .23 1 1 0 0 0 2-.23z" fill="#776f93"/><ellipse cx="193.53" cy="106.12" fill="#362f44" rx="8.25" ry="6.47" transform="matrix(.44885117 -.89360653 .89360653 .44885117 11.84 231.43)"/><path d="m198 105.5a5.54 5.54 0 0 0 0-3.06 1 1 0 1 0 -1.9.63 3.64 3.64 0 0 1 -.09 2 1 1 0 0 0 .79 1.18 1 1 0 0 0 1.2-.75z" fill="#776f93"/><path d="m196.59 107.11a1 1 0 0 0 -.9 1.79 1 1 0 0 0 .9-1.79z" fill="#776f93"/><path d="m159.26 142.83c-.38-4.95-4.09-6.78-8.12-8.58-2.57-1.15-4.24-2-4.92-5-.32-1.44 0-3-.45-4.42a7.41 7.41 0 0 0 -3.89-5c-4.24-2.07-8.89.42-10.15 4.84-1 3.52.67 7.06-2.94 9.7-1.83 1.34-4.5 1.06-6.33 2.69-3.45 3.07-2.64 8.58-.51 12.17a14 14 0 0 0 7.58 6.12h.14a14.63 14.63 0 0 0 5.22.73 2.08 2.08 0 0 0 .73-.17c10.11.51 24.56-1.1 23.64-13.08zm-13.63 8.77a51.55 51.55 0 0 1 -14.4 0c-3.78-1.16-7.23-4.23-7.11-8.43.15-5 5.37-4.07 8.27-6.2 2.11-1.55 2.79-3.72 3-6.23.14-1.54-.43-3.62.18-5q7.18-3 6.53 2.36a13 13 0 0 0 .15 1.93 8.49 8.49 0 0 0 3 5.64c2.84 2.28 8.56 2.47 9.81 6.41 1.86 5.75-5.23 8.8-9.43 9.52z" fill="#f7c806"/><path d="m172 139.51c-.22 5.27-2.59 9.32-7.16 11.05 1.87-1.75 3.68-3.77 4.3-6.23.8-3.18-.83-6.09-1.64-9.06-1.2-4.42-1.24-8.88 1.64-12.65a2.14 2.14 0 0 1 .65-.57 5.76 5.76 0 0 0 -.7-.78c-5-4.65-3.61 6.25-8.7 5.19a3.93 3.93 0 0 1 -1.56-.69c.44 1 .9 1.93 1.35 2.89.35 3.32 1.24 6.59 1.6 10a16.66 16.66 0 0 1 -5.78 14.73 19 19 0 0 0 3.14-17.39c-1.73-6-5.83-10.92-6.78-17.23a2.11 2.11 0 0 1 0-.71 6.27 6.27 0 0 0 -1.69.16c-6.73 1.46.83 10.53-3 11.17a2.23 2.23 0 0 1 -2.29-.9 12 12 0 0 0 .36 1.64c1.17 3.86 4.36 6.45 5.78 10.11 2.14 5.53-2.2 10-3.26 15.23-.41-3 .89-5.51 1-8.59.12-4.08-1.85-7.84-4-11.15-1.82-2.75-4.07-5.39-4.45-8.79a9.56 9.56 0 0 1 .36-3.65c-1.69.68-3.73 3.1-4.17 11.18a16.09 16.09 0 0 1 -.5 3.42c1.79 5.47 5.4 10.78 8.67 14.95a2.08 2.08 0 0 1 .41.88c-2.79-2.34-5.75-4.5-8.06-7.35a41.58 41.58 0 0 1 -3.63-5.26c-2.09.72-4.17-.13-2.52 7 2.77 12 15.56 14.87 15.56 14.87 20.16 1.18 35.84-23.68 30.9-28.17-2.93-2.66-4.84-1.71-6.42-.83.25.89.54 1.77.82 2.67-.16.91-.23 1.86-.23 2.86z" fill="#a9cb1c"/><path d="m145.23 135.75c2.2 3.31 4.16 7.07 4 11.15-.09 3.09-1.39 5.63-1 8.59 1.07-5.18 5.41-9.7 3.26-15.23-1.42-3.66-4.62-6.26-5.78-10.11a12 12 0 0 1 -.36-1.64c-1.35-1.74-1.32-5.31-2.22-5.4a4.06 4.06 0 0 0 -2 .2 9.56 9.56 0 0 0 -.36 3.65c.39 3.4 2.63 6.04 4.46 8.79z" fill="#8baa07"/><path d="m159.14 136a19 19 0 0 1 -3.14 17.39 16.66 16.66 0 0 0 5.74-14.67c-.35-3.45-1.24-6.72-1.6-10-.46-1-.92-1.92-1.35-2.89-2.81-2.06-2.36-7.46-6.43-7.7a2.11 2.11 0 0 0 0 .71c.95 6.27 5.05 11.16 6.78 17.16z" fill="#8baa07"/><path d="m168.34 134.49c-2.32-1.57 4.87-7.82 1.41-12.43a2.14 2.14 0 0 0 -.65.57c-2.88 3.76-2.85 8.22-1.64 12.65.81 3 2.43 5.87 1.64 9.06-.61 2.46-2.43 4.48-4.3 6.23 4.56-1.73 6.94-5.78 7.16-11.05 0-1 .11-1.95.22-2.85-.28-.89-.57-1.78-.82-2.67-1.08.6-2.01 1.17-3.02.49z" fill="#8baa07"/><path d="m145.55 153.74a2.08 2.08 0 0 0 -.41-.88c-3.27-4.16-6.87-9.48-8.67-14.95-.6 2.14-1.6 2.87-2.61 3.21a41.58 41.58 0 0 0 3.63 5.26c2.3 2.86 5.26 5.01 8.06 7.36z" fill="#8baa07"/><path d="m186.4 168.46s7-23.79.59-29.41-5.71 2-9 1.29-1.68-11-7.26-9.39-.22 8-2.68 10.28-7.81-6.69-10.71-2.45 3.12 5 1.56 8.63-9.59-.15-8.93 5.87 9.82 2.9 8.7 6.69-10.93 1.34-4.69 7.59 29.76 3.36 32.42.9z" fill="#7aa901"/><path d="m186.4 168.46s-1.75-9.48-1.35-13.15-.26-4.4-.91-7.9-2-5-2-4.58 1.56 7.78-.89 10.45-3.57-1.65-4.91-4.17-4.14-3.09-3.92-5.74-1.66-5.75-1.66-5.75 2 8.66 1.56 11.49-3.57-2.14-5.13-3.45a11 11 0 0 0 -4.46-1.75s8.17 8.48 7.1 10.26-7.55-3.12-9.55-3.12 4.24 6.47 5.8 6.47 7.87.22 7.06 1.34-7 1.34-9.36 2.9a48.34 48.34 0 0 1 -7.07 3.35s8.4-1.34 13.12-2 6.53-2.23 8.2 0 8.37 5.35 8.37 5.35z" fill="#759b00"/><path d="m256.12 114.19c-4.86 1-6.19 4.94-7.45 9.17-.81 2.7-1.42 4.47-4.34 5.53-1.39.5-3 .44-4.32 1a7.41 7.41 0 0 0 -4.4 4.51c-1.49 4.47 1.58 8.76 6.12 9.43 3.62.54 6.91-1.58 10 1.65 1.57 1.64 1.63 4.32 3.49 5.93 3.49 3 8.85 1.5 12.13-1.09a14 14 0 0 0 5.08-8.31s0-.09 0-.14a14.63 14.63 0 0 0 0-5.27 2.08 2.08 0 0 0 -.26-.71c-.81-10.07-4.29-24.18-16.05-21.7zm10.47 12.37a51.55 51.55 0 0 1 1.92 14.28c-.66 3.9-3.25 7.72-7.43 8.15-4.95.5-4.74-4.79-7.23-7.39-1.81-1.89-4-2.28-6.56-2.17-1.54.07-3.53.9-5 .47q-3.93-6.73 1.49-6.78a13 13 0 0 0 1.9-.4 8.49 8.49 0 0 0 5.2-3.75c1.89-3.11 1.33-8.81 5.08-10.56 5.42-2.56 9.38 4.07 10.63 8.15z" fill="#f7c806"/><path d="m209.94 116.36c3.3-3.71 2-7.65.55-11.81-1-2.65-1.51-4.44.21-7 .82-1.23 2.12-2.1 2.87-3.39a7.41 7.41 0 0 0 .87-6.24c-1.45-4.49-6.47-6.11-10.53-4-3.23 1.72-4.62 5.38-9 4.61-2.24-.39-3.88-2.51-6.33-2.7-4.6-.36-8 4.05-9.12 8.08a14 14 0 0 0 .85 9.7l.06.13a14.63 14.63 0 0 0 3.1 4.26 2.08 2.08 0 0 0 .63.41c6.67 7.59 17.85 16.92 25.84 7.95zm-15.77-3.74a51.55 51.55 0 0 1 -10-10.35c-1.79-3.53-2-8.14 1.15-11 3.68-3.27 6.68 1.07 10.19 1.73 2.58.45 4.61-.57 6.57-2.15 1.2-1 2.31-2.82 3.75-3.35q7.16 3.08 2.83 6.34a13 13 0 0 0 -1.28 1.45 8.49 8.49 0 0 0 -2 6.1c.33 3.63 4.16 7.88 2.18 11.52-2.84 5.23-9.95 2.24-13.38-.3z" fill="#f7c806"/><path d="m237.19 159.18c.39-4.95-3-7.33-6.7-9.74-2.36-1.54-3.88-2.62-4.08-5.73-.09-1.47.42-3 .24-4.44a7.41 7.41 0 0 0 -3.08-5.5c-3.87-2.7-8.85-1-10.78 3.21-1.54 3.32-.43 7.08-4.41 9.13-2 1-4.61.35-6.67 1.67-3.88 2.49-3.94 8.07-2.39 11.95a14 14 0 0 0 6.54 7.22l.13.07a14.63 14.63 0 0 0 5 1.53 2.08 2.08 0 0 0 .75-.05c9.98 2 24.5 2.66 25.45-9.32zm-14.83 6.55a51.55 51.55 0 0 1 -14.24-2.19c-3.56-1.73-6.49-5.3-5.72-9.43.91-4.89 5.94-3.19 9.13-4.85 2.33-1.2 3.33-3.24 3.94-5.68.37-1.5.14-3.64 1-4.94q7.56-1.87 6.08 3.34a13 13 0 0 0 -.15 1.93 8.49 8.49 0 0 0 2.13 6c2.45 2.69 8.08 3.77 8.7 7.86.88 5.98-6.6 7.9-10.86 7.95z" fill="#d34040"/><path d="m194.82 121.5c-2.74-4.14-6.87-3.94-11.27-3.56-2.81.24-4.68.32-6.74-2-1-1.11-1.49-2.58-2.54-3.65a7.41 7.41 0 0 0 -5.81-2.44c-4.71.25-7.57 4.69-6.52 9.16.83 3.57 4 5.84 2.14 9.91-.95 2.06-3.42 3.11-4.23 5.42-1.53 4.35 1.86 8.78 5.47 10.89a14 14 0 0 0 9.6 1.67h.14a14.63 14.63 0 0 0 4.94-1.9 2.08 2.08 0 0 0 .56-.5c9.03-4.56 20.88-12.98 14.26-23zm-7.66 14.28a51.55 51.55 0 0 1 -12.57 7c-3.87.82-8.37-.18-10.31-3.92-2.29-4.42 2.71-6.17 4.22-9.44 1.09-2.38.63-4.6-.39-6.9-.63-1.41-2.13-3-2.28-4.49q4.81-6.13 6.85-1.11a13 13 0 0 0 1.07 1.61 8.49 8.49 0 0 0 5.4 3.46c3.59.61 8.69-2 11.69.84 4.36 4.17-.35 10.28-3.68 12.95z" fill="#d34040"/><ellipse cx="159.25" cy="131.57" fill="#362f44" rx="6.47" ry="8.25" transform="matrix(.84141648 -.54038718 .54038718 .84141648 -45.84 106.91)"/><path d="m161 127.44a5.54 5.54 0 0 0 -2.62-1.58 1 1 0 1 0 -.43 2 3.64 3.64 0 0 1 1.71 1.11 1 1 0 0 0 1.41-.08 1 1 0 0 0 -.07-1.45z" fill="#776f93"/><path d="m161.66 129.43a1 1 0 0 0 1.08 1.68 1 1 0 0 0 -1.08-1.68z" fill="#776f93"/><path d="m222.51 117.87c-1.25-1.23-4.08-2.12-5.77-1.23-1 .53-1.39 2.09-1.77 3.09a19.36 19.36 0 0 0 -.89 3.25 2.06 2.06 0 0 0 1.32 2.5 1.75 1.75 0 0 0 .31.06 1.32 1.32 0 0 0 .42.34 2.66 2.66 0 0 0 .52.16h.1.07a1.64 1.64 0 0 0 .7 0 9.1 9.1 0 0 0 4.3-1.92c1.92-1.23 2.45-4.52.69-6.25z" fill="#f2b00a"/><path d="m220.66 117c-1.56-.81-4.7-1.1-6 .24a4.37 4.37 0 0 0 -.91 3 19.36 19.36 0 0 0 .11 3.37 2.06 2.06 0 0 0 2 2 1.75 1.75 0 0 0 .31 0 1.32 1.32 0 0 0 .5.2 2.66 2.66 0 0 0 .54 0h.22a1.64 1.64 0 0 0 .68-.17 9.1 9.1 0 0 0 3.54-3.11c1.35-1.84 1.2-4.39-.99-5.53z" fill="#ffd217"/><path d="m180 150.62c-1.62.68-3.53 3-3.36 4.85.1 1.13 1.4 2.09 2.18 2.82a19.36 19.36 0 0 0 2.66 2.07 2.06 2.06 0 0 0 2.82-.25 1.75 1.75 0 0 0 .17-.26 1.32 1.32 0 0 0 .47-.26 2.66 2.66 0 0 0 .35-.41l.06-.08v-.06a1.64 1.64 0 0 0 .3-.63 9.1 9.1 0 0 0 -.12-4.7c-.38-2.29-3.21-4.04-5.53-3.09z" fill="#f2b00a"/><path d="m178.54 152c-1.35 1.13-2.82 3.91-2.1 5.67a4.37 4.37 0 0 0 2.44 2 19.36 19.36 0 0 0 3.15 1.19 2.06 2.06 0 0 0 2.62-1.08 1.75 1.75 0 0 0 .09-.3 1.32 1.32 0 0 0 .37-.38 2.66 2.66 0 0 0 .21-.5s0-.06 0-.09v-.07a1.64 1.64 0 0 0 .1-.7 9.1 9.1 0 0 0 -1.51-4.46c-1.07-2.03-3.48-2.86-5.37-1.28z" fill="#ffd217"/><path d="m248.28 149.74c-1.25-1.23-4.08-2.12-5.77-1.23-1 .53-1.39 2.09-1.77 3.09a19.36 19.36 0 0 0 -.89 3.25 2.06 2.06 0 0 0 1.32 2.5 1.75 1.75 0 0 0 .31.06 1.32 1.32 0 0 0 .42.34 2.66 2.66 0 0 0 .52.16h.1.07a1.64 1.64 0 0 0 .7 0 9.1 9.1 0 0 0 4.3-1.92c1.91-1.23 2.41-4.51.69-6.25z" fill="#f2b00a"/><path d="m246.43 148.88c-1.56-.81-4.7-1.1-6 .24a4.37 4.37 0 0 0 -.91 3 19.36 19.36 0 0 0 .11 3.37 2.06 2.06 0 0 0 2 2 1.75 1.75 0 0 0 .31 0 1.32 1.32 0 0 0 .5.2 2.66 2.66 0 0 0 .54 0h.22a1.64 1.64 0 0 0 .68-.17 9.1 9.1 0 0 0 3.54-3.11c1.36-1.84 1.19-4.41-.99-5.53z" fill="#ffd217"/><path d="m231.54 97.76c-1.25-1.23-4.08-2.12-5.77-1.23-1 .53-1.39 2.09-1.77 3.09a19.36 19.36 0 0 0 -.89 3.25 2.06 2.06 0 0 0 1.32 2.5 1.75 1.75 0 0 0 .31.06 1.32 1.32 0 0 0 .42.34 2.66 2.66 0 0 0 .52.16h.1.07a1.64 1.64 0 0 0 .7 0 9.1 9.1 0 0 0 4.3-1.92c1.91-1.24 2.44-4.52.69-6.25z" fill="#f2b00a"/><path d="m229.69 96.89c-1.56-.81-4.7-1.1-6 .24a4.37 4.37 0 0 0 -.91 3 19.36 19.36 0 0 0 .11 3.37 2.06 2.06 0 0 0 2 2 1.75 1.75 0 0 0 .31 0 1.32 1.32 0 0 0 .5.2 2.66 2.66 0 0 0 .54 0h.22a1.64 1.64 0 0 0 .68-.17 9.1 9.1 0 0 0 3.54-3.11c1.32-1.84 1.19-4.42-.99-5.53z" fill="#ffd217"/><path d="m160.21 110.82c-1.25-1.23-4.08-2.12-5.77-1.23-1 .53-1.39 2.09-1.77 3.09a19.36 19.36 0 0 0 -.89 3.25 2.06 2.06 0 0 0 1.32 2.5 1.75 1.75 0 0 0 .31.06 1.32 1.32 0 0 0 .42.34 2.66 2.66 0 0 0 .52.16h.1.07a1.64 1.64 0 0 0 .7 0 9.1 9.1 0 0 0 4.3-1.92c1.92-1.24 2.48-4.52.69-6.25z" fill="#f2b00a"/><path d="m158.36 110c-1.56-.81-4.7-1.1-6 .24a4.37 4.37 0 0 0 -.91 3 19.36 19.36 0 0 0 .11 3.37 2.06 2.06 0 0 0 2 2 1.75 1.75 0 0 0 .31 0 1.32 1.32 0 0 0 .5.2 2.66 2.66 0 0 0 .54 0h.22a1.64 1.64 0 0 0 .68-.17 9.1 9.1 0 0 0 3.54-3.11c1.36-1.89 1.2-4.44-.99-5.53z" fill="#ffd217"/><ellipse cx="150.03" cy="158.93" fill="#7ea83b" rx="13.36" ry="16.18" transform="matrix(.7476822 -.66405672 .66405672 .7476822 -67.68 139.73)"/><path d="m138.51 147.58 3.94-3.55 21.87 23.77-4.46 3.96" fill="#7ea83b"/><ellipse cx="152.8" cy="156.47" fill="#a2cb6b" rx="13.36" ry="16.18" transform="matrix(.7476822 -.66405672 .66405672 .7476822 -65.35 140.95)"/><ellipse cx="152.8" cy="156.47" fill="#ecffcf" rx="11.68" ry="14.15" transform="matrix(.7476822 -.66405672 .66405672 .7476822 -65.35 140.95)"/><path d="m147.51 148.08-.94-1.09a1 1 0 0 0 -1.41.07 1 1 0 0 0 .07 1.41l.94 1.09a1 1 0 0 0 1.41-.07 1 1 0 0 0 -.07-1.41z" fill="#b5e47c"/><path d="m145.37 152.93a1 1 0 0 1 -.65-.17 1 1 0 0 0 -1.41.07 1 1 0 0 0 .07 1.41 3.23 3.23 0 0 0 2.06.69 1 1 0 0 0 -.07-2z" fill="#b5e47c"/><path d="m145.21 157.2a2.27 2.27 0 0 0 -.85.38c-1 .75 0 2.43 1.08 1.68a.66.66 0 0 1 .37-.16 1 1 0 0 0 .66-1.25 1 1 0 0 0 -1.26-.65z" fill="#b5e47c"/><path d="m149.77 162.76a1 1 0 0 0 -1.38-.3 2.28 2.28 0 0 0 -.89 1.37c-.25 1.26 1.7 1.71 1.95.45 0-.1 0-.12 0-.13a1 1 0 0 0 .32-1.39z" fill="#b5e47c"/><path d="m151.62 164a6.74 6.74 0 0 0 -.1 1.67c.09 1.28 2.09 1.22 2-.07a4.56 4.56 0 0 1 0-1.15c.27-1.25-1.67-1.7-1.9-.45z" fill="#b5e47c"/><path d="m158.21 165.15a2.06 2.06 0 0 1 -.39-.81c-.31-1.25-2.21-.65-1.91.6a3.57 3.57 0 0 0 .61 1.3 1 1 0 0 0 1.38.3 1 1 0 0 0 .31-1.39z" fill="#b5e47c"/><path d="m162.23 162.88a3.26 3.26 0 0 1 -.5-.64c-.67-1.1-2.36 0-1.68 1.08a5.47 5.47 0 0 0 .84 1c.91.94 2.25-.54 1.34-1.44z" fill="#b5e47c"/><path d="m163.88 158.05a1 1 0 0 0 -1.38-.3.75.75 0 0 1 -.3 0c-1.29 0-1.22 2 .07 2a2.77 2.77 0 0 0 1.31-.34 1 1 0 0 0 .3-1.36z" fill="#b5e47c"/><path d="m161.92 151.72-1.37.6a1 1 0 0 0 -.66 1.25 1 1 0 0 0 1.25.66l1.37-.6a1 1 0 0 0 .66-1.25 1 1 0 0 0 -1.25-.66z" fill="#b5e47c"/><path d="m158.56 148.07a1 1 0 0 0 -1.41.07l-.6.81a1 1 0 0 0 .07 1.41 1 1 0 0 0 1.41-.07l.6-.81a1 1 0 0 0 -.07-1.41z" fill="#b5e47c"/><path d="m152.48 146.34-.18 1c-.22 1.27 1.73 1.72 1.95.45l.18-1c.22-1.26-1.73-1.72-1.95-.45z" fill="#b5e47c"/><path d="m154.91 152.27c-.87-1.06-2.18-2.21-3.68-1.84a2.17 2.17 0 0 0 -1.5 1.32l-.12.1a2.07 2.07 0 0 0 -.45.83c-.85 1.2-.48 3.25.08 4.42a4.59 4.59 0 0 0 3.92 2.73 2 2 0 0 0 .66-.15 4 4 0 0 0 .51 0c3.98-.68 2.23-5.41.58-7.41z" fill="#fefffd"/><ellipse cx="238.49" cy="155.81" fill="#7ea83b" rx="16.18" ry="13.36" transform="matrix(.84066114 -.5415615 .5415615 .84066114 -46.38 154)"/><path d="m225.52 165.46-2.91-4.44 26.85-17.97 3.22 5.02" fill="#7ea83b"/><ellipse cx="236.49" cy="152.7" fill="#a2cb6b" rx="16.18" ry="13.36" transform="matrix(.84066114 -.5415615 .5415615 .84066114 -45.01 152.41)"/><ellipse cx="236.49" cy="152.7" fill="#ecffcf" rx="14.15" ry="11.68" transform="matrix(.84066114 -.5415615 .5415615 .84066114 -45.01 152.41)"/><path d="m227.39 156.64-1.22.77a1 1 0 0 0 -.15 1.41 1 1 0 0 0 1.41.15l1.22-.77a1 1 0 0 0 .15-1.41 1 1 0 0 0 -1.41-.15z" fill="#b5e47c"/><path d="m231.86 159.5a1 1 0 0 1 -.26.62 1 1 0 0 0 -.15 1.41 1 1 0 0 0 1.41.15 3.23 3.23 0 0 0 1-1.93 1 1 0 0 0 -2-.25z" fill="#b5e47c"/><path d="m236 160.31a2.27 2.27 0 0 0 .25.9c.58 1.14 2.41.34 1.83-.81a.66.66 0 0 1 -.1-.39 1 1 0 0 0 -1.14-.84 1 1 0 0 0 -.84 1.14z" fill="#b5e47c"/><path d="m242.25 156.66a1 1 0 0 0 -.51 1.32 2.28 2.28 0 0 0 1.22 1.09c1.21.44 2-1.42.74-1.86-.09 0-.12 0-.13 0s0 0 0 0a1 1 0 0 0 -1.32-.55z" fill="#b5e47c"/><path d="m243.77 155a6.74 6.74 0 0 0 1.63.35c1.28.11 1.52-1.88.24-2a4.56 4.56 0 0 1 -1.13-.23c-1.22-.37-1.96 1.48-.74 1.88z" fill="#b5e47c"/><path d="m245.9 148.68a2.06 2.06 0 0 1 -.86.26c-1.28.11-1 2.09.3 2a3.57 3.57 0 0 0 1.38-.41 1 1 0 0 0 .51-1.32 1 1 0 0 0 -1.33-.53z" fill="#b5e47c"/><path d="m244.27 144.37a3.26 3.26 0 0 1 -.71.4 1 1 0 0 0 .81 1.83 5.47 5.47 0 0 0 1.16-.67c1.03-.77-.23-2.33-1.26-1.56z" fill="#b5e47c"/><path d="m239.75 142a1 1 0 0 0 -.51 1.32.75.75 0 0 1 0 .3c-.21 1.27 1.78 1.51 2 .24a2.77 2.77 0 0 0 -.14-1.35 1 1 0 0 0 -1.35-.51z" fill="#b5e47c"/><path d="m233.19 143 .38 1.45a1 1 0 0 0 1.14.84 1 1 0 0 0 .84-1.14l-.38-1.45a1 1 0 0 0 -1.14-.84 1 1 0 0 0 -.84 1.14z" fill="#b5e47c"/><path d="m229.07 145.72a1 1 0 0 0 -.15 1.41l.71.72a1 1 0 0 0 1.37.15 1 1 0 0 0 .15-1.41l-.71-.72a1 1 0 0 0 -1.37-.15z" fill="#b5e47c"/><path d="m226.44 151.46 1 .33c1.22.41 2-1.44.74-1.86l-1-.33c-1.18-.41-1.96 1.4-.74 1.86z" fill="#b5e47c"/><path d="m232.67 150c-1.18.7-2.52 1.82-2.39 3.35a2.17 2.17 0 0 0 1.07 1.69s0 .09.08.13a2.07 2.07 0 0 0 .75.57c1.05 1 3.14 1 4.38.6a4.59 4.59 0 0 0 3.3-3.46 2 2 0 0 0 0-.68 4 4 0 0 0 0-.51c0-4.05-4.96-3.05-7.19-1.69z" fill="#fefffd"/><ellipse cx="222.8" cy="112.37" fill="#7ea83b" rx="16.18" ry="13.36" transform="matrix(.82570468 -.56410264 .56410264 .82570468 -24.55 145.28)"/><path d="m235.51 102.38 3.02 4.36-26.34 18.68-3.36-4.92" fill="#7ea83b"/><ellipse cx="224.89" cy="115.43" fill="#a2cb6b" rx="16.18" ry="13.36" transform="matrix(.82570468 -.56410264 .56410264 .82570468 -25.91 147)"/><ellipse cx="224.89" cy="115.43" fill="#ecffcf" rx="14.15" ry="11.68" transform="matrix(.82570468 -.56410264 .56410264 .82570468 -25.91 147)"/><path d="m233.88 111.24 1.2-.8a1 1 0 0 0 .11-1.41 1 1 0 0 0 -1.41-.11l-1.2.8a1 1 0 0 0 -.11 1.41 1 1 0 0 0 1.41.11z" fill="#b5e47c"/><path d="m229.34 108.5a1 1 0 0 1 .25-.62 1 1 0 0 0 .11-1.41 1 1 0 0 0 -1.41-.11 3.23 3.23 0 0 0 -.94 2 1 1 0 0 0 1.99.14z" fill="#b5e47c"/><path d="m225.13 107.81a2.27 2.27 0 0 0 -.27-.89c-.61-1.13-2.42-.28-1.81.86a.66.66 0 0 1 .11.38 1 1 0 0 0 1.16.81 1 1 0 0 0 .81-1.16z" fill="#b5e47c"/><path d="m219 111.63a1 1 0 0 0 .47-1.33 2.28 2.28 0 0 0 -1.24-1.05c-1.22-.41-1.91 1.47-.69 1.88h.13s0 0 0 0a1 1 0 0 0 1.33.5z" fill="#b5e47c"/><path d="m217.55 113.31a6.74 6.74 0 0 0 -1.64-.31c-1.28-.07-1.47 1.92-.19 2a4.56 4.56 0 0 1 1.14.2c1.23.37 1.92-1.51.69-1.89z" fill="#b5e47c"/><path d="m215.59 119.7a2.06 2.06 0 0 1 .85-.28c1.28-.14.93-2.11-.35-2a3.57 3.57 0 0 0 -1.37.44 1 1 0 0 0 -.47 1.33 1 1 0 0 0 1.34.51z" fill="#b5e47c"/><path d="m217.34 124a3.26 3.26 0 0 1 .7-.42 1 1 0 0 0 -.86-1.81 5.47 5.47 0 0 0 -1.14.7c-1.04.77.29 2.3 1.3 1.53z" fill="#b5e47c"/><path d="m221.92 126.22a1 1 0 0 0 .47-1.33.75.75 0 0 1 0-.3c.17-1.28-1.82-1.46-2-.19a2.77 2.77 0 0 0 .17 1.35 1 1 0 0 0 1.36.47z" fill="#b5e47c"/><path d="m228.45 125.08-.42-1.44a1 1 0 0 0 -1.16-.81 1 1 0 0 0 -.81 1.16l.42 1.44a1 1 0 0 0 1.16.81 1 1 0 0 0 .81-1.16z" fill="#b5e47c"/><path d="m232.49 122.2a1 1 0 0 0 .11-1.41l-.73-.7a1 1 0 0 0 -1.41-.11 1 1 0 0 0 -.11 1.41l.73.7a1 1 0 0 0 1.41.11z" fill="#b5e47c"/><path d="m235 116.4-1-.31c-1.23-.38-1.92 1.5-.69 1.88l1 .31c1.2.37 1.89-1.5.69-1.88z" fill="#b5e47c"/><path d="m228.78 118.06c1.16-.73 2.47-1.89 2.29-3.42a2.17 2.17 0 0 0 -1.07-1.64s0-.09-.08-.13a2.07 2.07 0 0 0 -.77-.55c-1.08-1-3.17-.89-4.39-.48a4.59 4.59 0 0 0 -3.2 3.55 2 2 0 0 0 .06.67 4 4 0 0 0 0 .51c.04 4.01 4.97 2.87 7.16 1.49z" fill="#fefffd"/><path d="m251.22 78.33c1.29-4-1-6.66-3.64-9.37-1.66-1.73-2.7-2.93-2.26-5.54.21-1.24.92-2.37 1.07-3.63a6.31 6.31 0 0 0 -1.48-5.15 6.17 6.17 0 0 0 -9.55.55c-1.92 2.45-1.74 5.78-5.43 6.7-1.87.47-3.88-.61-5.85.08-3.7 1.31-4.84 5.91-4.31 9.43a11.94 11.94 0 0 0 4 7.26l.09.08a12.45 12.45 0 0 0 3.88 2.26 1.77 1.77 0 0 0 .63.1c7.83 3.59 19.73 6.97 22.85-2.77zm-13.56 2.53a43.86 43.86 0 0 1 -11.36-4.6c-2.61-2.13-4.34-5.66-2.89-8.93 1.71-3.87 5.54-1.48 8.51-2.23 2.16-.54 3.39-2 4.37-3.94.6-1.17.83-3 1.76-3.9q6.63-.07 4.39 4a11.1 11.1 0 0 0 -.5 1.57 7.22 7.22 0 0 0 .58 5.42c1.51 2.71 6 4.7 5.67 8.21-.41 5.06-6.98 5.19-10.52 4.4z" fill="#d34040"/><ellipse cx="200" cy="39.86" fill="#362f44" rx="8.25" ry="6.47" transform="matrix(.44885117 -.89360653 .89360653 .44885117 74.61 200.7)"/><path d="m204.43 39.25a5.54 5.54 0 0 0 0-3.06 1 1 0 1 0 -1.9.63 3.64 3.64 0 0 1 -.09 2 1 1 0 0 0 .79 1.18 1 1 0 0 0 1.2-.75z" fill="#776f93"/><path d="m203.06 40.85a1 1 0 0 0 -.9 1.79 1 1 0 0 0 .9-1.79z" fill="#776f93"/></svg>