<svg enable-background="new 0 0 128 128" viewBox="0 0 128 128" xmlns="http://www.w3.org/2000/svg" xmlns:xlink="http://www.w3.org/1999/xlink"><radialGradient id="a" cx="61" cy="111" gradientUnits="userSpaceOnUse" r="23.0358"><stop offset="0" stop-color="#38a4dd"/><stop offset="1" stop-color="#58c1ef"/></radialGradient><radialGradient id="b" cx="60.9812" cy="96.5" gradientUnits="userSpaceOnUse" r="15.0566"><stop offset=".1555" stop-color="#44b3e6"/><stop offset=".8865" stop-color="#84d2f6"/></radialGradient><radialGradient id="c" cx="118.4763" cy="1033.1475" gradientTransform="matrix(.9943 .0955 -.0752 .6232 11.0006 -594.2836)" gradientUnits="userSpaceOnUse" r="49.48"><stop offset=".1135" stop-color="#84d2f6"/><stop offset=".8445" stop-color="#44b3e6"/></radialGradient><radialGradient id="d" cx="60.313" cy="1372.8425" gradientTransform="matrix(1 0 0 .4929 0 -623.4445)" gradientUnits="userSpaceOnUse" r="53.215"><stop offset=".7659" stop-color="#bedef5"/><stop offset=".9686" stop-color="#89b4d4"/></radialGradient><radialGradient id="e" cx="60.1913" cy="153.157" gradientTransform="matrix(1 0 0 -1 0 127.8898)" gradientUnits="userSpaceOnUse" r="123.6306"><stop offset=".3749" stop-color="#fae9e7"/><stop offset=".7183" stop-color="#fae9e7"/><stop offset=".8104" stop-color="#a1887f"/></radialGradient><clipPath id="f"><path d="m109.3 57.7c-.5-1.3-1.4-5.5-2.7-8.8-4-12.5-22.2-32-45.5-32-20.8 0-37.7 15.6-44 27.8s-4.7 7.3-4.7 13.1.4 8.2 2 10.6c1.9 3 3.6 4.5 7.2 5.2 1.4.3 2.4 1.6 3.2 2.7 3.8 5.7 7.2 6.4 13.4 6.6 2.5.1 8.4 1 9.5 1.7 1.6.9 3.6 1.4 5.8 1.4 1.5 0 2.9-.2 4.1-.7 1.8-.6 3.8-.6 5.7 0 1.7.6 3.8.8 5.9.6 2.3-.2 4.4-.8 6-1.8 1.8-1.1 4.1-1.3 6.1-.7 1.8.5 3.9.6 6 .2 2.8-.6 5.1-2 6.5-3.8 1.2-1.5 2.9-2.6 4.9-2.8.8-.1 1.6-.3 2.4-.7 1.9-.8 2.8-3 3.3-4.9.4-1.7 1.2-3.4 2.7-4.4 2.6-2 3-7.1 2.2-9.3z"/></clipPath><radialGradient id="g" cx="60.207" cy="786.9929" gradientTransform="matrix(1 0 0 .905 0 -699.7832)" gradientUnits="userSpaceOnUse" r="67.994"><stop offset="0" stop-color="#e53a35"/><stop offset=".4262" stop-color="#ef9a9b"/><stop offset=".7269" stop-color="#facdd2"/></radialGradient><radialGradient id="h" cx="58.48" cy="12.3661" gradientUnits="userSpaceOnUse" r="14.557"><stop offset=".4128" stop-color="#ef4438"/><stop offset=".6561" stop-color="#d32e2e"/></radialGradient><path d="m90.7 45c-2.1-1.8-2.3-5-.5-7.2l19.6-22.6c1.8-2.1 5.1-2.4 7.2-.5 2.1 1.8 2.3 5.1.5 7.2l-19.6 22.6c-1.9 2.1-5.1 2.4-7.2.5z" fill="#44b3e6"/><path d="m113.7 15.5c.7 0 1.5.3 2 .8 1.3 1.1 1.4 3.1.3 4.4l-19.7 22.5c-.6.7-1.4 1.1-2.3 1.1-.7 0-1.5-.3-2-.8-1.3-1.1-1.4-3.1-.3-4.3l19.6-22.6c.6-.7 1.5-1.1 2.4-1.1m0-2c-1.4 0-2.8.6-3.8 1.8l-19.7 22.6c-1.8 2.1-1.6 5.3.5 7.2 1 .8 2.2 1.2 3.3 1.2 1.4 0 2.8-.6 3.8-1.8l19.6-22.6c1.8-2.1 1.6-5.3-.5-7.2-.9-.8-2.1-1.2-3.2-1.2z" fill="#434343" opacity=".2"/><path d="m91.7 113.1c0 6-13.8 10.9-30.7 10.9s-30.7-4.9-30.7-10.9c0-.6.1-2.4.1-2.4s15.5-8.5 30.7-8.5c15.6 0 30.7 8.7 30.7 8.7s-.1 1.7-.1 2.2z" fill="#3d82c4"/><ellipse cx="61" cy="111" fill="url(#a)" rx="30.7" ry="10.9"/><path d="m61 102.1c17.8 0 28.7 5.2 28.7 8.9v.1.1.2 1.8c0 3.7-10.9 8.9-28.7 8.9s-28.7-5.2-28.7-8.9c0-.3 0-.9 0-1.5 0-.1 0-.2 0-.4 0-.1 0-.2 0-.3-.1-3.7 10.9-8.9 28.7-8.9m0-2c-17 0-30.7 4.9-30.7 10.9v.6 1.5c0 6 13.8 10.9 30.7 10.9s30.7-4.9 30.7-10.9c0-.3 0-1.2 0-1.8 0-.1 0-.2 0-.3 0-6-13.8-10.9-30.7-10.9z" fill="#434343" opacity=".2"/><path d="m65.9 79.3h-9.5s1.6 21-7 29c-2.6 2.4.6 3.8 2.5 4.3 2.3.7 5.6 1.1 9.3 1.1s7-.4 9.3-1.1c1.8-.6 4.4-2.9 2.5-4.3-8.4-6.1-7.1-29-7.1-29z" fill="url(#b)"/><path d="m63.8 81.3c0 2.3 0 6.2.5 10.4 1 8.9 3.4 14.9 7.1 17.9-.3.4-.9.8-1.5 1-2.2.7-5.4 1-8.7 1s-6.5-.4-8.7-1c-1-.3-1.5-.6-1.8-.8 0-.1.1-.1.2-.2 7.6-7 7.9-22.7 7.8-28.4zm2.1-2h-9.5s1.6 21-7 29c-2.6 2.4.6 3.8 2.5 4.3 2.3.7 5.6 1.1 9.3 1.1s7-.4 9.3-1.1c1.8-.6 4.4-2.9 2.5-4.3-8.4-6.1-7.1-29-7.1-29z" fill="#434343" opacity=".2"/><path d="m110.8 49.5c1.3.5 2.1 1.7 2 3-.7 9-6.5 44.4-51.7 44.4s-51.1-35.4-51.9-44.4c-.1-1.3.7-2.5 2-3 6.3-2.7 26.2-10.1 49.8-10.1s43.5 7.4 49.8 10.1z" fill="url(#c)"/><ellipse cx="61" cy="51.6" fill="url(#d)" rx="51.9" ry="17.4"/><path d="m61 35.1c12.7 0 25.6 2.3 35.5 6.3 9.2 3.7 13.3 7.9 13.3 10.2v.5.1c-.8 9.8-6.7 41.6-48.8 41.6-42 0-48-31.8-48.8-41.6 0-.3-.1-.6-.2-.9.4-2.4 4.5-6.3 13.3-9.9 10-4 23-6.3 35.7-6.3m0-3c-28.6 0-51.8 11-51.8 19.5 0 .6.2.4.2.8.7 9 6.5 44.4 51.7 44.4s51-35.4 51.7-44.4c0-.5 0-.3 0-.8 0-8.5-23.2-19.5-51.8-19.5z" fill="#434343" opacity=".2"/><path d="m109.1 64c.7-2.2.7-4.9.2-6.2-.2-.6-.5-1.7-.9-3-.6.9-1.3 1.7-2.4 2.6-7 5.6-24.5 9.3-45 9.3-20.9 0-38.8-3.9-45.5-9.8-1.2-1-2-2.1-2.4-3.2 1.3-4.7 4.1-9.1 4.1-9.1 2-3.8 5-7.9 8.8-11.8 1.5-1.6 3.2-3.1 5-4.5.9-.7 1.8-1.4 2.8-2.1.5-.3 1-.7 1.5-1s1-.7 1.5-1c.2-.2.5-.3.8-.5 1.3-.8 2.6-1.5 3.9-2.1.3-.1.5-.3.8-.4.5-.3 1.1-.5 1.7-.7.3-.1.6-.2.8-.4 1.1-.5 2.3-.9 3.5-1.2.3-.1.6-.2.9-.3 3.8-1.1 7.9-1.8 12.1-1.8 13.1 0 24.6 6.2 32.8 13.8.5.4.9.8 1.4 1.3.2.2.4.4.6.7 1.1 1.1 2.1 2.2 3 3.3.4.4.7.9 1.1 1.3.2.2.3.5.5.7.3.5.7.9 1 1.3.6.9 1.2 1.8 1.8 2.7.3.4.5.9.8 1.3.1.2.2.4.4.7.6 1.1 1.1 2.1 1.5 3.1.1.2.2.4.2.6.2.4.3.8.4 1.2.1.2.2.5.2.7.1.2.2.5.2.7.1.2.2.5.2.7.1.4.2.8.4 1.1 0 .1 0 .1.1.2.1.4.2.7.3 1.1v.2c.1.4.2.7.3 1 .4 1.3.7 2.4.9 3 .4 1.6.4 4.3-.3 6.5z" fill="url(#e)"/><g clip-path="url(#f)"><path d="m20.6 56c3.1-.4 7.7-5.4 10.8-5.2 3.7.2 6.8 2.9 9.7 5.3s8.2 6.2 11.9 5.5c7-1.4 10.6-8.3 17.6-9.8 3-.7 10.2 3.6 13 5.1 7.5 4.1 10.4 1.5 11.7-1.9.8-2.2 1.7-6.2 3.8-7.1s8.9 5.3 8.9 4.8c-1.5-24.1-22.8-39.4-46.1-39.3-21.8 0-45.6 13.9-47.2 35.9-.1.1.2 7.5 5.9 6.7z" fill="url(#g)"/></g><path d="m108.4 54.7c-.1-.3-.2-.7-.3-1 0-.1 0-.1 0-.2-.1-.4-.2-.7-.3-1.1 0-.1 0-.1-.1-.2-.1-.4-.2-.8-.4-1.1-.1-.2-.2-.5-.2-.7-.1-.2-.2-.5-.2-.7-.1-.2-.2-.5-.3-.7-.1-.4-.3-.8-.4-1.2-.1-.2-.2-.4-.2-.6-.4-1-.9-2.1-1.5-3.1-.1-.2-.2-.4-.4-.7-.2-.4-.5-.9-.8-1.3-.5-.9-1.1-1.8-1.8-2.7-.3-.4-.7-.9-1-1.3-.2-.2-.4-.4-.5-.7-.4-.4-.7-.9-1.1-1.3-.9-1.1-1.9-2.2-3-3.3-.2-.2-.4-.4-.6-.7-.4-.4-.9-.9-1.4-1.3-8.3-7.6-19.8-13.8-32.8-13.8-4.2 0-8.3.6-12.1 1.8-.3.1-.6.2-.9.3-1.2.4-2.3.8-3.5 1.2-.3.1-.6.2-.8.4-.6.2-1.1.5-1.7.7-.3.1-.5.3-.8.4-1.4.7-2.7 1.4-3.9 2.1-.3.2-.5.3-.8.5-.5.3-1 .6-1.5 1-.5.3-1 .7-1.5 1-.9.7-1.9 1.4-2.8 2.1-1.8 1.4-3.5 3-5 4.5-3.8 3.9-6.8 8-8.8 11.8s-2.8 4.4-4.1 9.1c.5 1.1 1.3 2.2 2.4 3.2.4-3.8 3-8.6 4.1-10.5.1-.1.2-.2.2-.4 5.4-10.5 21-26.2 41.3-26.2 12.3 0 22.1 5.8 28.1 10.7 8.3 6.8 13 14.4 14.6 19.3v.1c.9 2.4 1.5 4.7 2 6.4.1.4.2.7.3 1 1.2-1 2-1.9 2.5-2.8zm-1.8 12.7c.2-.2.3-.3.5-.4l.3-.3c-.1.1-.2.2-.3.3s-.3.2-.5.4zm-7.8 9.5c-1.7.2-3.3 1.1-4.4 2.3 1.1-1.2 2.7-2 4.4-2.3.8-.1 1.6-.3 2.4-.7.5-.2.9-.5 1.2-.9-.4.3-.8.6-1.2.8-.8.5-1.6.7-2.4.8zm-5.8 3.8c-.6.6-1.3 1.1-2.1 1.5.8-.4 1.5-.9 2.1-1.5zm-6.3 3c.2 0 .5-.1.7-.1.1 0 .2 0 .3-.1-.1 0-.2 0-.3.1-.2 0-.5.1-.7.1zm0 0c-.5.1-.9.1-1.4.2.5-.1.9-.1 1.4-.2zm-9.5-.3c.7-.2 1.4-.3 2-.3.7 0 1.5.1 2.2.3.2.1.5.1.8.2-.3-.1-.5-.1-.8-.2-1.4-.4-2.9-.4-4.2 0zm-8 2.5c-.2 0-.5 0-.7 0 .3.1.5.1.7 0 2.3-.2 4.4-.8 6-1.8.6-.3 1.2-.6 1.9-.8-.7.2-1.3.4-1.9.8-1.6 1-3.7 1.6-6 1.8zm-1.4.1h.7c-1.1 0-2.1 0-3.1-.2.8.1 1.6.2 2.4.2zm-10.2-.7c-1.2.4-2.6.7-4.1.7-2.2 0-4.2-.5-5.8-1.4-1.2-.6-7-1.6-9.5-1.6-4.8-.1-8-.6-10.9-3.5 3 2.9 6.1 3.4 10.9 3.5 2.5.1 8.4 1 9.5 1.6 1.6.9 3.6 1.4 5.8 1.4 1.5 0 2.9-.3 4.1-.7.9-.3 1.8-.5 2.8-.5s2 .2 2.9.5c.7.2 1.4.4 2.1.5-.8-.1-1.5-.3-2.1-.5-1.8-.6-3.8-.6-5.7 0zm-41.4-14.4c1.4 1.5 2.9 2.3 5.4 2.8.7.1 1.3.5 1.8 1-.5-.5-1.1-.9-1.8-1-2.5-.6-4-1.4-5.4-2.8z" fill="#434343" opacity=".2"/><g opacity=".4"><g fill="#ef9a9b"><circle cx="28.7" cy="51" r="3"/><circle cx="36.9" cy="57.1" r="2"/><circle cx="67.3" cy="49.4" r="2"/></g><circle cx="45.5" cy="38.1" fill="#f05455" r="2"/><circle cx="70.4" cy="29.2" fill="#f05455" r="2"/><circle cx="83.4" cy="57.3" fill="#ef9a9b" r="3"/><circle cx="96.6" cy="48.4" fill="#ef9a9b" r="3"/><circle cx="83.7" cy="38.1" fill="#f05455" r="3"/></g><path d="m73.8 16.8c0 2.6-.8 5-2.1 7-2.3 3.5-1.6-.6-5.6 2.1-2.3 1.5-3.9.7-9.1-.9-2.9-.9-4.5.9-5.7 0-2.4-1.9-3.2-4.9-3.2-8.2 0-7 5.8-12.8 12.9-12.8s12.8 5.8 12.8 12.8z" fill="url(#h)"/><path d="m61 6c6 0 10.8 4.9 10.8 10.8 0 2.1-.6 4.1-1.8 5.9-.1.2-.2.3-.3.4-.2-.1-.6-.1-1.1-.1-1.1 0-2.2.4-3.6 1.3-.6.4-1 .5-1.4.5-.9 0-2.3-.4-4.4-1.1-.5-.2-1-.3-1.6-.5-.7-.2-1.5-.4-2.2-.4-1 0-1.9.2-2.5.4-.2 0-.4.1-.5.1-1.5-1.3-2.2-3.4-2.2-6.4 0-6 4.8-10.9 10.8-10.9m0-2c-7.1 0-12.8 5.8-12.8 12.8 0 3.3.8 6.3 3.2 8.2.3.2.5.3.9.3.8 0 1.8-.5 3.2-.5.5 0 1 .1 1.7.3 3.3 1 5.1 1.7 6.6 1.7.9 0 1.6-.2 2.5-.8 1.1-.8 1.9-1 2.4-1 .7 0 1.1.4 1.6.4.4 0 .8-.3 1.6-1.5 1.3-2 2.1-4.4 2.1-7-.2-7.1-5.9-12.9-13-12.9z" fill="#434343" opacity=".2"/></svg>