<svg enable-background="new 0 0 128 128" viewBox="0 0 128 128" xmlns="http://www.w3.org/2000/svg" xmlns:xlink="http://www.w3.org/1999/xlink"><linearGradient id="a" gradientUnits="userSpaceOnUse" x1="101.82" x2="112.46" y1="60.491" y2="60.491"><stop offset=".225" stop-color="#8bc249"/><stop offset=".9398" stop-color="#7cb342"/></linearGradient><clipPath id="b"><path d="m4 4h120v120h-120z"/></clipPath><linearGradient id="c"><stop offset=".3451" stop-color="#f5f5f5"/><stop offset=".8524" stop-color="#e0e0e0"/></linearGradient><radialGradient id="d" cx="41.276" cy="54.858" gradientUnits="userSpaceOnUse" r="77.502" xlink:href="#c"/><radialGradient id="e" cx="49.88" cy="120.48" gradientUnits="userSpaceOnUse" r="18.653"><stop offset="0" stop-color="#bdbdbd"/><stop offset=".884" stop-color="#9d9d9d"/></radialGradient><clipPath id="f"><ellipse cx="64.04" cy="57.16" rx="60" ry="20.17"/></clipPath><radialGradient id="g" cx="64.484" cy="63.611" gradientTransform="matrix(1 0 0 .3331 0 42.423)" gradientUnits="userSpaceOnUse" r="55.11"><stop offset=".0785" stop-color="#f78c1e"/><stop offset=".9285" stop-color="#f9a01b"/></radialGradient><clipPath id="h"><ellipse cx="64.04" cy="64.5" rx="44.48" ry="14.95"/></clipPath><linearGradient id="i"><stop offset=".4485" stop-color="#fff3e1"/><stop offset="1" stop-color="#ffe0b2"/></linearGradient><radialGradient id="j" cx="19.456" cy="57.576" gradientTransform="matrix(.938 .1642 -.3441 .5484 22.428 22.079)" gradientUnits="userSpaceOnUse" r="25.495" xlink:href="#i"/><linearGradient id="k"><stop offset="0" stop-color="#f36e21"/><stop offset="1" stop-color="#faaa43"/></linearGradient><radialGradient id="l" cx="23.552" cy="63.513" gradientTransform="matrix(.938 .1642 -.3441 .5484 22.428 22.079)" gradientUnits="userSpaceOnUse" r="7.2607" xlink:href="#k"/><linearGradient id="m"><stop offset=".1407" stop-color="#733619"/><stop offset=".9247" stop-color="#8d401e"/></linearGradient><radialGradient id="n" cx="74.112" cy="53.501" gradientTransform="matrix(.9454 -.326 .1706 .4948 -5.1078 50.92)" gradientUnits="userSpaceOnUse" r="19.783" xlink:href="#m"/><linearGradient id="o"><stop offset=".3514" stop-color="#bb5b27"/><stop offset="1" stop-color="#8d401e"/></linearGradient><radialGradient id="p" cx="73.976" cy="52.55" gradientTransform="matrix(.9454 -.326 .1706 .4948 -4.9105 50.39)" gradientUnits="userSpaceOnUse" r="19.783" xlink:href="#o"/><linearGradient id="q"><stop offset=".1326" stop-color="#c55833"/><stop offset=".1631" stop-color="#cf6947"/><stop offset=".1954" stop-color="#c65935"/><stop offset=".4201" stop-color="#c55733"/><stop offset=".4302" stop-color="#d67456"/><stop offset=".4771" stop-color="#c3532e"/><stop offset=".6515" stop-color="#c65a35"/><stop offset=".7114" stop-color="#d67456"/><stop offset=".7948" stop-color="#c55733"/><stop offset=".9201" stop-color="#c55732"/><stop offset=".9663" stop-color="#d06c4b"/><stop offset="1" stop-color="#c55732"/></linearGradient><linearGradient id="r" gradientTransform="matrix(.999 .0445 -.0445 .999 2.4241 -3.5077)" gradientUnits="userSpaceOnUse" x1="85.989" x2="75.63" xlink:href="#q" y1="42.302" y2="60.35"/><radialGradient id="s" cx="85.681" cy="61.515" gradientTransform="matrix(.9306 -.3662 .1917 .4871 -4.4091 61.366)" gradientUnits="userSpaceOnUse" r="19.782" xlink:href="#m"/><radialGradient id="t" cx="85.545" cy="60.564" gradientTransform="matrix(.9306 -.3662 .1917 .4871 -4.2346 60.828)" gradientUnits="userSpaceOnUse" r="19.782" xlink:href="#o"/><linearGradient id="u" gradientTransform="matrix(1 .0016389 -.0016389 1 1.5313 -1.6999)" gradientUnits="userSpaceOnUse" x1="97.558" x2="87.199" xlink:href="#q" y1="50.316" y2="68.364"/><radialGradient id="v" cx="94.421" cy="64.375" gradientTransform="matrix(.9091 -.4167 .2181 .4758 -4.9414 74.261)" gradientUnits="userSpaceOnUse" r="19.783" xlink:href="#m"/><radialGradient id="w" cx="94.285" cy="63.423" gradientTransform="matrix(.9091 -.4167 .2181 .4758 -4.7968 73.714)" gradientUnits="userSpaceOnUse" r="19.783"><stop offset="0" stop-color="#8d401e"/><stop offset=".6486" stop-color="#bb5b27"/></radialGradient><linearGradient id="x" gradientUnits="userSpaceOnUse" x1="115.72" x2="85.818" xlink:href="#q" y1="59.468" y2="72.351"/><radialGradient id="y" cx="82.685" cy="55.074" gradientTransform="matrix(.9091 -.4167 .2181 .4758 -4.4589 65.134)" gradientUnits="userSpaceOnUse" r="19.783" xlink:href="#m"/><radialGradient id="z" cx="82.549" cy="54.123" gradientTransform="matrix(.9091 -.4167 .2181 .4758 -4.3143 64.588)" gradientUnits="userSpaceOnUse" r="19.783" xlink:href="#o"/><linearGradient id="A" gradientUnits="userSpaceOnUse" x1="103.51" x2="73.604" xlink:href="#q" y1="50.806" y2="63.689"/><radialGradient id="B" cx="93.966" cy="59.334" gradientTransform="matrix(.9673 -.2536 .1328 .5063 -4.2138 54.265)" gradientUnits="userSpaceOnUse" r="19.783" xlink:href="#m"/><radialGradient id="C" cx="93.83" cy="58.383" gradientTransform="matrix(.9673 -.2536 .1328 .5063 -3.977 53.751)" gradientUnits="userSpaceOnUse" r="19.783" xlink:href="#o"/><linearGradient id="D" gradientTransform="matrix(.985 .1725 -.1725 .985 12.201 -15.409)" gradientUnits="userSpaceOnUse" x1="115" x2="85.095" xlink:href="#q" y1="54.459" y2="67.342"/><radialGradient id="E" cx="26.517" cy="71.65" gradientTransform="matrix(.9419 .2374 -.3343 .7322 23.878 5.4182)" gradientUnits="userSpaceOnUse" r="25.495" xlink:href="#i"/><radialGradient id="F" cx="30.613" cy="77.587" gradientTransform="matrix(.9419 .2374 -.3343 .7322 23.878 5.4182)" gradientUnits="userSpaceOnUse" r="7.2607" xlink:href="#k"/><linearGradient id="G"><stop offset=".1977" stop-color="#8d6e63"/><stop offset=".8299" stop-color="#6d4d42"/></linearGradient><radialGradient id="H" cx="45.305" cy="73.849" gradientTransform="matrix(.9995 .0309 -.0183 .5914 1.5861 25.954)" gradientUnits="userSpaceOnUse" r="13.847" xlink:href="#G"/><linearGradient id="I"><stop offset=".3976" stop-color="#8bc249"/><stop offset=".9398" stop-color="#7cb342"/></linearGradient><radialGradient id="J" cx="95.155" cy="64.885" gradientUnits="userSpaceOnUse" r="6.8341" xlink:href="#I"/><radialGradient id="K" cx="112.69" cy="58.255" gradientUnits="userSpaceOnUse" r="6.8341" xlink:href="#I"/><radialGradient id="L" cx="71.066" cy="66.051" gradientTransform="matrix(.9991 -.0417 .0247 .5912 -.9491 34.012)" gradientUnits="userSpaceOnUse" r="13.847" xlink:href="#G"/><linearGradient id="M"><stop offset=".1134" stop-color="#fecc81"/><stop offset=".8178" stop-color="#faa629"/></linearGradient><radialGradient id="N" cx="71.581" cy="67.055" gradientTransform="matrix(.9795 .2014 -.2014 .9795 15.382 -8.9185)" gradientUnits="userSpaceOnUse" r="5.98" xlink:href="#M"/><radialGradient id="O" cx="45.82" cy="74.853" gradientTransform="matrix(.9623 .272 -.272 .9623 22.01 -12.358)" gradientUnits="userSpaceOnUse" r="5.98" xlink:href="#M"/><radialGradient id="P" cx="44.896" cy="81.255" gradientTransform="matrix(.9943 .1071 -.0752 .6984 6.3702 19.696)" gradientUnits="userSpaceOnUse" r="71.601"><stop offset=".2291" stop-color="#f5f5f5"/><stop offset=".8173" stop-color="#bdbdbd"/><stop offset=".9733" stop-color="#e0e0e0"/></radialGradient><clipPath id="Q"><path d="m64.04 77.33c-30.85 0-56.24-7.83-59.61-17.89-.12.43-.17.89-.14 1.36.86 11.64 7.56 57.53 59.87 57.53 52.32 0 59.02-45.9 59.87-57.53.05-.61-.05-1.21-.27-1.76-2.8 10.26-28.46 18.29-59.72 18.29z"/></clipPath><radialGradient id="R" cx="41.198" cy="55.904" gradientUnits="userSpaceOnUse" r="77.341" xlink:href="#c"/><linearGradient id="S"><stop offset=".3477" stop-color="#795649"/><stop offset=".8524" stop-color="#5d4137"/></linearGradient><linearGradient id="T" gradientUnits="userSpaceOnUse" x1="86.03" x2="86.03" xlink:href="#S" y1="5.2044" y2="13.726"/><linearGradient id="U"><stop offset=".2141" stop-color="#fecc81"/><stop offset="1" stop-color="#faa629"/></linearGradient><linearGradient id="V" gradientUnits="userSpaceOnUse" x1="52.343" x2="52.343" xlink:href="#U" y1="8.1425" y2="55.678"/><linearGradient id="W" gradientUnits="userSpaceOnUse" x1="63.228" x2="63.228" y1="25.26" y2="57.537"><stop offset=".5446" stop-color="#fecc81"/><stop offset="1" stop-color="#faa629"/></linearGradient><linearGradient id="X" gradientUnits="userSpaceOnUse" x1="85.964" x2="85.964" xlink:href="#S" y1="17.65" y2="25.542"/><linearGradient id="Y" gradientUnits="userSpaceOnUse" x1="67" x2="67" y1="25.26" y2="57.537"><stop offset=".6169" stop-color="#fecc81"/><stop offset="1" stop-color="#faa629"/></linearGradient><linearGradient id="Z" gradientUnits="userSpaceOnUse" x1="58.014" x2="58.014" xlink:href="#U" y1="17.36" y2="60.856"/><path d="m113.9 64.16c-.03-.03-.07-.06-.1-.09.26-1.13.43-2.79-.61-3.74-1.45-1.33-4.14-1.11-5.27.11-.09.1-.17.21-.25.32-.17.11-.32.24-.45.38-.2.22-.35.47-.47.73-.66.07-1.26.35-1.71.84-.08.09-.14.19-.21.29-.18.12-.34.25-.49.41-1.13 1.23-.86 3.3.59 4.64 1.13 1.03 2.64 1.32 3.78.82.12.15.26.3.41.44 1.45 1.33 3.95.83 5.08-.4.08-.09.15-.18.22-.27.18-.13.34-.27.48-.42 1.13-1.25.46-2.73-1-4.06z" fill="#346a34"/><path d="m103.17 61.08c-.04.02-.07.05-.11.08-1.01-.49-2.37-.38-3.5.39-1.57 1.08-2.11 3.03-1.2 4.36.29.43.7.74 1.18.93-.22.79-.13 1.61.33 2.27.91 1.33 2.92 1.53 4.5.46 1.22-.84 1.82-2.2 1.6-3.38.17-.08.34-.18.5-.29 1.57-1.08 2.11-3.03 1.2-4.36-.91-1.34-2.93-1.54-4.5-.46z" fill="#568b3e"/><path d="m111.02 60.03c-.03-.03-.07-.05-.11-.08.17-1.11.13-2.7-.94-3.55-1.49-1.19-3.51-1.14-4.52.12-.32.41-.96 1.21-1.01 1.72-.82.02-1.58.35-2.08.98-1.01 1.26-.61 3.24.88 4.43 1.16.92 2.63 1.09 3.7.54.13.14.27.27.42.39 1.49 1.19 3.51 1.14 4.52-.12 1.03-1.26.64-3.24-.86-4.43z" fill="url(#a)"/><ellipse clip-path="url(#b)" cx="64.04" cy="57.16" fill="url(#d)" rx="60" ry="20.17"/><ellipse clip-path="url(#b)" cx="64" cy="115.58" fill="url(#e)" rx="25" ry="8.42"/><g clip-path="url(#b)" opacity=".2"><path d="m64 109.17c14.88 0 23 4.24 23 6.42 0 1.02-1.84 2.67-5.96 4.06-4.52 1.51-10.57 2.35-17.04 2.35-14.88 0-23-4.24-23-6.42 0-1.02 1.84-2.67 5.96-4.06 4.52-1.52 10.57-2.35 17.04-2.35m0-2c-13.81 0-25 3.77-25 8.42s11.19 8.41 25 8.41 25-3.77 25-8.42-11.19-8.41-25-8.41z" fill="#434343"/></g><g clip-path="url(#b)"><ellipse clip-path="url(#f)" cx="64.04" cy="64.5" fill="url(#g)" rx="53.06" ry="17.84"/></g><g clip-path="url(#b)"><g clip-path="url(#h)"><path d="m27.21 54.77c20.44-3.81 47.48 2.98 60.31 20.37.56.76 2.44.25 1.76-.68-13.32-18.05-41.29-25.12-62.53-21.16-1.29.24-.66 1.68.46 1.47z" fill="#fecc81"/></g><g clip-path="url(#h)"><path d="m23.89 57.43c17-3.45 43.02 1.72 49.02 20.6.29.91 2.27.71 1.94-.31-6.3-19.81-33.55-25.39-51.43-21.75-1.28.26-.66 1.69.47 1.46z" fill="#fecc81"/></g><g clip-path="url(#h)"><path d="m35.62 52.47c10.79-1.94 22.24-.86 32.85 1.65 11.84 2.8 24.35 8.01 31.59 18.27.58.82 2.33-.15 1.76-.95-7.02-9.94-18.68-15.26-30.13-18.3-11.44-3.04-24.06-4.39-35.8-2.28-.99.17-1.55 1.84-.27 1.61z" fill="#fecc81"/></g><g clip-path="url(#h)"><path d="m41.29 51.37c21.71-4.14 51.49 1.15 66.19 19.01.68.83 2.14-.49 1.55-1.22-15.1-18.36-45.29-23.82-67.64-19.56-.95.18-1.32 2-.1 1.77z" fill="#fcb64e"/></g><g clip-path="url(#h)"><path d="m39.53 55.92c-12.47.2-24.41 9.57-24.6 22.49-.02 1.25 1.7.55 1.72-.42.18-11.77 11.07-20.08 22.37-20.26.93-.01 1.66-1.82.51-1.81z" fill="#fecc81"/></g><g clip-path="url(#h)"><path d="m50.65 57.14c-11.37 1.38-30.86 10.33-30.21 24.11.06 1.25 1.76.56 1.72-.42-.6-12.6 18.04-20.67 28.41-21.92.96-.12 1.31-1.92.08-1.77z" fill="#fecc81"/></g><g clip-path="url(#h)"><path d="m57.82 61.82c-11.65.16-30.54 9.48-29.88 23.16.06 1.25 1.76.56 1.72-.42-.6-12.4 17.07-20.79 27.65-20.93.94-.01 1.66-1.82.51-1.81z" fill="#fecc81"/></g><g clip-path="url(#h)"><path d="m63.18 66.61c-11.21 1.34-28.8 9.47-28.13 22.93.06 1.25 1.77.56 1.72-.42-.63-12.36 16.08-19.52 26.33-20.75.96-.11 1.31-1.91.08-1.76z" fill="#fcb64e"/></g><g clip-path="url(#h)"><path d="m68.55 71.22c-11.21 1.34-28.8 9.47-28.13 22.93.06 1.25 1.77.56 1.72-.42-.62-12.36 16.09-19.52 26.34-20.75.96-.11 1.31-1.91.07-1.76z" fill="#fcb64e"/></g></g><g clip-path="url(#b)"><path d="m10.9 64.38c-.63-1.82-.19-3.53-.19-3.53s3.34-4.1 10.67-4.79c5.85-.55 15.92.49 18.47 4.56.56.89-.11 4.03-.77 4.66-4.84 4.56-8.31 6.05-17.25 5.8-7.6-.21-9.16-1.58-10.93-6.7z" fill="#cda997"/></g><g clip-path="url(#b)"><path d="m10.68 61.32c-.8-3.47 3.96-6.55 11.11-6.92s17.77 2.15 17.95 5.67-10.03 7.21-17.14 7.03c-7.57-.19-11.19-2.64-11.92-5.78z" fill="url(#j)"/><path d="m15.29 60.76c-.11-2.16 2.43-4.02 6.81-4.25s8.32 1.09 8.43 3.25-3.54 4.31-7.93 4.54-7.2-1.38-7.31-3.54z" fill="url(#l)"/></g><g clip-path="url(#b)"><path d="m90.21 46.93c17.1 6.36-3.69 16.63-17.22 16.32-8.45-.19-15.22-2.03-12.09-6.43 3.46-4.85 21.98-12.61 29.31-9.89z" fill="url(#n)"/><path d="m90.12 45.98c17.1 6.36-3.69 16.63-17.22 16.32-8.45-.19-15.22-2.03-12.09-6.43 3.45-4.86 21.98-12.62 29.31-9.89z" fill="url(#p)"/><path d="m89.95 46.83c15.53 5.78-4.19 14.78-16.49 14.5-7.68-.17-13.96-1.39-11.12-5.39 3.14-4.41 20.95-11.59 27.61-9.11z" fill="url(#r)"/></g><g clip-path="url(#b)"><path d="m102.95 52.97c17.36 5.62-2.97 16.77-16.51 17.04-8.45.17-15.29-1.38-12.35-5.91 3.25-4.99 21.42-13.54 28.86-11.13z" fill="url(#s)"/><path d="m102.82 52.02c17.36 5.62-2.97 16.77-16.51 17.04-8.45.17-15.29-1.38-12.35-5.91 3.24-4.99 21.42-13.54 28.86-11.13z" fill="url(#t)"/><path d="m102.68 52.88c15.76 5.1-3.56 14.95-15.86 15.19-7.68.15-14.01-.79-11.34-4.91 2.96-4.54 20.45-12.47 27.2-10.28z" fill="url(#u)"/></g><g clip-path="url(#b)"><path d="m110.37 57.71c17.64 4.66-2.05 16.91-15.55 17.92-8.43.63-15.35-.53-12.66-5.22 2.97-5.17 20.65-14.7 28.21-12.7z" fill="url(#v)"/><path d="m110.18 56.76c17.64 4.66-2.05 16.91-15.55 17.92-8.43.63-15.35-.53-12.66-5.22 2.97-5.16 20.65-14.69 28.21-12.7z" fill="url(#w)"/><path d="m110.09 57.63c16.02 4.23-2.73 15.12-15 16.04-7.66.58-14.03-.02-11.59-4.28 2.7-4.7 19.72-13.58 26.59-11.76z" fill="url(#x)"/></g><g clip-path="url(#b)"><path d="m98.15 49.04c17.64 4.66-2.05 16.91-15.55 17.92-8.43.63-15.35-.53-12.66-5.22 2.97-5.16 20.65-14.69 28.21-12.7z" fill="url(#y)"/><path d="m97.97 48.1c17.64 4.66-2.05 16.91-15.55 17.92-8.43.63-15.35-.53-12.66-5.22 2.97-5.16 20.65-14.7 28.21-12.7z" fill="url(#z)"/><path d="m97.88 48.96c16.02 4.23-2.73 15.12-15 16.04-7.66.58-14.03-.02-11.59-4.28 2.69-4.69 19.72-13.57 26.59-11.76z" fill="url(#A)"/></g><path clip-path="url(#b)" d="m104.94 53.75s25.24 8.41 5.76 16.39c-12.31 5.04-27.24 11.51-65.1 7.75-7.76-.77-27.9-1.99-21.48-7.97s32.77-15.72 38.31-16.39c3.74-.45.37 2.9.66 4.43.53 2.79 2.39 4.07 7.97 2.44 12.84-3.76 6.88.97 13.51 1.33 16.6.88 20.37-7.98 20.37-7.98z" fill="#f9a01b" opacity=".5"/><g clip-path="url(#b)"><path d="m111.11 55.41c16.57 7.63-4.93 16.3-18.41 14.97-8.41-.83-15.02-3.17-11.57-7.32 3.82-4.58 22.88-10.92 29.98-7.65z" fill="url(#B)"/><path d="m111.09 54.45c16.57 7.63-4.93 16.3-18.41 14.97-8.41-.83-15.02-3.17-11.57-7.32 3.82-4.58 22.88-10.92 29.98-7.65z" fill="url(#C)"/><path d="m110.86 55.28c15.05 6.93-5.3 14.42-17.54 13.21-7.64-.75-13.82-2.44-10.68-6.22 3.46-4.15 21.76-9.96 28.22-6.99z" fill="url(#D)"/></g><g clip-path="url(#b)"><path d="m14.79 70.02c-.87-4.69 3.84-8.75 10.99-9.12 7.14-.37 17.83 3.2 18.07 7.94.25 4.74-9.9 9.54-17.02 9.17-7.58-.4-11.26-3.76-12.04-7.99z" fill="url(#E)"/><path d="m19.39 69.34c-.15-2.91 2.36-5.37 6.74-5.6s8.34 1.62 8.49 4.53-3.47 5.74-7.85 5.97-7.23-1.99-7.38-4.9z" fill="url(#F)"/></g><path clip-path="url(#b)" d="m59.62 75.69c-.23 4.63-6.58 8.08-14.19 7.71s-13.6-4.42-13.38-9.05c.23-4.63 6.58-8.08 14.19-7.71s13.61 4.43 13.38 9.05z" fill="url(#H)"/><g clip-path="url(#b)"><path d="m91.33 66.52c-.05.03-.09.07-.14.11-1.37-.66-3.2-.52-4.72.53-2.13 1.45-2.85 4.09-1.63 5.88.4.58.95 1 1.59 1.25-.29 1.07-.17 2.17.44 3.07 1.23 1.79 3.95 2.07 6.07.62 1.65-1.13 2.45-2.96 2.16-4.57.23-.11.46-.24.68-.39 2.13-1.45 2.85-4.09 1.63-5.88-1.24-1.8-3.95-2.07-6.08-.62z" fill="#568b3e"/><path d="m105.4 69.2c-.06-.02-.11-.03-.17-.05-.27-1.49-1.47-2.88-3.22-3.5-2.43-.86-4.98.11-5.71 2.16-.23.66-.24 1.36-.07 2.02-1.03.39-1.85 1.15-2.21 2.17-.72 2.05.66 4.41 3.09 5.26 1.88.66 3.84.23 4.96-.96.23.12.46.23.72.31 2.43.86 4.98-.11 5.71-2.16.71-2.04-.67-4.39-3.1-5.25z" fill="#346a34"/><path d="m99.13 62.42c-.06-.02-.11-.03-.17-.04-.33-1.48-.78-2.89-2.55-3.43-2.46-.75-4.98.32-5.61 2.4-.21.67-1 1.43-.8 2.09-1.02.43-1.8 1.22-2.12 2.26-.64 2.08.84 4.38 3.31 5.13 1.91.59 3.85.07 4.92-1.16.23.11.47.21.73.28 2.46.75 4.98-.32 5.61-2.4.62-2.08-.86-4.37-3.32-5.13z" fill="url(#J)"/></g><g clip-path="url(#b)"><path d="m108.87 59.89c-.05.03-.09.07-.14.11-1.37-.66-3.2-.52-4.72.53-2.13 1.45-2.85 4.09-1.63 5.88.4.58.95 1 1.59 1.25-.29 1.07-.17 2.17.44 3.07 1.23 1.79 3.95 2.07 6.07.62 1.65-1.13 2.45-2.96 2.16-4.57.23-.11.46-.24.68-.39 2.13-1.45 2.85-4.09 1.63-5.88-1.24-1.8-3.95-2.08-6.08-.62z" fill="#568b3e"/><path d="m116.93 59.4c-.06.02-.11.04-.17.06-1.12-1.02-2.92-1.4-4.68-.83-2.45.79-3.89 3.12-3.22 5.18.22.67.63 1.23 1.17 1.65-.58.94-.78 2.04-.44 3.07.67 2.07 3.2 3.1 5.65 2.3 1.9-.62 3.19-2.15 3.36-3.77.25-.04.51-.1.76-.18 2.45-.79 3.89-3.12 3.22-5.18-.67-2.07-3.2-3.1-5.65-2.3z" fill="#346a34"/><path d="m116.67 55.79c-.06-.02-.11-.03-.17-.04-.33-1.48-.78-2.89-2.55-3.43-2.46-.75-4.98.32-5.61 2.4-.21.67-1 1.43-.8 2.09-1.02.43-1.8 1.22-2.12 2.26-.64 2.08.84 4.38 3.31 5.13 1.91.59 3.85.07 4.92-1.16.23.11.47.21.73.28 2.46.75 4.98-.32 5.61-2.4.62-2.08-.86-4.37-3.32-5.13z" fill="url(#K)"/></g><g clip-path="url(#b)"><path d="m86.09 73.72c.11 4.63-5.97 8.53-13.59 8.72s-13.89-3.42-14-8.05 5.97-8.53 13.59-8.72c7.62-.18 13.89 3.42 14 8.05z" fill="url(#L)"/><path d="m78.58 71.48-4.95 1.11c-.13.01-.23.11-.26.23l-1.01 4.21c-.07.29-.47.31-.57.03l-1.64-4.4c-.04-.1-.13-.18-.24-.19l-4.68-.59c-.34-.04-.35-.53-.02-.59l4.87-.91c.11-.02.2-.11.23-.22l.8-3.01c.07-.27.43-.3.56-.06l1.6 3.19c.04.09.12.15.22.16l5.13.19c.48.06.46.79-.04.85z" fill="url(#N)"/></g><path clip-path="url(#b)" d="m52.29 72.91-5.02.74c-.13.01-.24.09-.27.21l-1.32 4.12c-.09.28-.49.28-.57-.01l-1.32-4.51c-.03-.11-.12-.19-.23-.21l-4.62-.93c-.34-.07-.31-.55.03-.59l4.92-.56c.11-.01.21-.09.25-.2l1.02-2.95c.09-.26.46-.27.56-.02l1.36 3.29c.04.09.11.15.21.18l5.1.56c.48.14.41.86-.1.88z" fill="url(#O)"/><g clip-path="url(#b)"><path d="m64.04 77.33c-30.85 0-56.24-7.83-59.61-17.89-.12.43-.17.89-.14 1.36.86 11.64 7.56 57.53 59.87 57.53 52.32 0 59.02-45.9 59.87-57.53.05-.61-.05-1.21-.27-1.76-2.8 10.26-28.46 18.29-59.72 18.29z" fill="url(#P)"/><circle cx="84.15" cy="88.51" fill="#a93023" r="2"/><circle cx="43.99" cy="88.35" fill="#be3a26" r="2"/><circle cx="63.99" cy="89.43" fill="#be3a26" r="2"/><ellipse cx="100.95" cy="85.8" fill="#8d372a" rx="1.5" ry="2"/><ellipse cx="26.85" cy="85.64" fill="#be3a26" rx="1.5" ry="2"/><ellipse cx="114.8" cy="81.18" fill="#8d372a" rx="1" ry="2"/><ellipse cx="12.76" cy="81.02" fill="#be3a26" rx="1" ry="2"/></g><g style="clip-path:url(#b);fill:none;stroke:#be3a26;stroke-linecap:round;stroke-linejoin:round;stroke-miterlimit:10;stroke-width:3"><path clip-path="url(#Q)" d="m5.5 72.58s14 13 59.01 13 58.66-13 58.66-13"/><path clip-path="url(#Q)" d="m5.5 80.08s14 13 59.01 13 58.66-13 58.66-13"/></g><path clip-path="url(#b)" d="m63.92 38.08c-33.07 0-59.88 9.01-59.88 20.13s26.81 20.13 59.88 20.13 59.88-9.01 59.88-20.13c-.01-11.12-26.82-20.13-59.88-20.13zm0 37.5c-31.25 0-56.58-8.02-56.58-17.91s25.33-17.91 56.58-17.91 56.58 8.02 56.58 17.91-25.33 17.91-56.58 17.91z" fill="url(#R)"/><g clip-path="url(#b)" opacity=".2"><path d="m64.04 39.99c15.71 0 30.44 2.04 41.47 5.75 9.58 3.22 15.53 7.6 15.53 11.42 0 .17 0 .48.01.84.01.67.02 2.23 0 2.58-.4 5.41-2.19 19.32-10.17 31.73-9.83 15.28-25.55 23.03-46.71 23.03s-36.88-7.75-46.71-23.03c-7.99-12.41-9.78-26.32-10.18-31.73-.01-.1-.02-.29-.04-.54-.05-.65-.2-2.39-.2-2.88 0-3.82 5.95-8.2 15.53-11.42 11.03-3.7 25.76-5.75 41.47-5.75m0-3c-33.14 0-60 9.03-60 20.17 0 .77.22 3.17.25 3.64.86 11.64 7.56 57.53 59.87 57.53 52.32 0 59.02-45.9 59.87-57.53.05-.61 0-3 0-3.64.01-11.14-26.85-20.17-59.99-20.17z" fill="#434343"/></g><path clip-path="url(#b)" d="m128.07 12.31-81.02.37c-1.66.01-3.02-1.32-3.05-2.98s1.29-3.04 2.95-3.09l80.98-2.3z" fill="url(#T)"/><g clip-path="url(#b)" opacity=".2"><path d="m125.96 6.36.07 3.95-79 .37c-.56 0-1.03-.46-1.04-1.02s.45-1.04 1.01-1.05zm1.96-2.05-80.98 2.3c-1.66.05-2.98 1.43-2.95 3.09s1.38 2.98 3.04 2.98h.01l81.02-.37z" fill="#434343"/></g><g clip-path="url(#b)"><path d="m54.58 5.9c-4.21-1.32-5.27 2.11-5.27 6.85 0 21.59 2.37 36.21-.25 52.74-.05.29 2.01 1.42 3.68-.33 2.9-3.03.79-44.37.79-55.17 0-3.03 2.11-3.82 2.11-3.82l-1.06-.27z" fill="url(#V)"/></g><g clip-path="url(#b)"><path d="m62.46 5.55c-1.49 1.78-.98 5.95-1.04 8.03-.18 5.9-.13 11.82-.08 17.72.09 10.36.46 20.71.5 31.07.01 1.76 2.92 1.05 2.91-.62-.03-9.3-.36-18.59-.46-27.89-.07-5.94-.12-11.89 0-17.84.04-1.87-.51-7.82.54-9.07 1.24-1.49-1.24-2.74-2.37-1.4z" fill="url(#W)"/></g><path clip-path="url(#b)" d="m128 18.86-81.02-.34c-1.66-.01-3.02 1.32-3.05 2.98s1.29 3.04 2.95 3.09l80.98 2.27z" fill="url(#X)"/><g clip-path="url(#b)" opacity=".2"><path d="m46.96 18.52v2l79 .33-.07 3.95-78.96-2.21c-.57-.02-1.02-.49-1.01-1.05s.47-1.02 1.04-1.02zm0 0c-1.65 0-3.01 1.33-3.04 2.98-.03 1.66 1.29 3.04 2.95 3.09l80.98 2.27.14-8-81.02-.34z" fill="#434343"/></g><g clip-path="url(#b)"><path d="m64.7 7.42c1.36 2.15.96 6.04 1.01 8.43.12 5.7-.09 11.42-.29 17.11-.38 11-1.04 22.03-.86 33.04.03 2.02 3.77.63 3.74-1.23-.2-12 .62-24.01.97-35.99.15-5.01.3-10.04.15-15.06-.08-2.51.16-6.05-1.25-8.28-1.04-1.66-4.51.33-3.47 1.98z" fill="url(#Y)"/></g><g clip-path="url(#b)"><path d="m58.66 5.38c-4.48 1.45-3.29 18.83-3.16 27.78.13 9.02-1.11 22.97-1.32 32-.03 1.5 3.66 1.49 4.08-.13 1.98-7.64-1.7-57.08 2.64-57.77 1.93-.31.53-2-1.06-1.74z" fill="url(#Z)"/></g><g fill="#e1f3f7"><path d="m18.77 41.13c-1.06 1.09-2.86-.08-2.29-1.49 1.86-4.59 3.18-10.72.53-16.35-3.36-7.15-.39-11.6 2.34-13.95.92-.79 2.31-.1 2.3 1.11-.03 2.54.84 6.95 4.42 14.47 2.31 4.83-2.74 11.52-7.3 16.21z"/><path d="m36.61 50.47c-1.06 1.09-2.86-.08-2.29-1.49 1.86-4.59 3.18-10.72.53-16.35-3.36-7.15-.39-11.6 2.34-13.95.92-.79 2.31-.1 2.3 1.11-.03 2.54.84 6.95 4.42 14.47 2.31 4.83-2.74 11.51-7.3 16.21z"/></g></svg>