<svg enable-background="new 0 0 512 512" viewBox="0 0 512 512" xmlns="http://www.w3.org/2000/svg"><path d="m39.327 163.313c-4.383 5.305-4.625 12.557-4.48 19.261.553 25.522 4.572 52.36 21.183 72.609 20.953 25.542 58.157 35.262 92.516 33.451s67.135-13.328 99.948-23.034c23.583-6.976 47.471-13.071 71.642-17.98 26.012-5.283 53.956-9.934 73.264-27.077 26.585-23.604 25.755-68.746-1.681-91.478-13.827-11.456-31.994-16.971-49.612-22.155-15.031-4.423-30.236-8.847-45.951-9.925-18.508-1.27-36.976 2.147-55.175 5.547-65.254 12.189-131.492 24.694-190.61 53.273-4.077 1.97-8.237 4.111-11.044 7.508z" fill="#efefef"/><path d="m112.478 250.282c-16.015-19.51-30.93-77.893-31.468-102.48-.038-1.712-.042-3.46.041-5.202-10.401 4-20.65 8.354-30.68 13.203-4.077 1.971-8.237 4.112-11.044 7.509-4.383 5.305-4.625 12.557-4.48 19.261.553 25.522 4.572 52.36 21.183 72.61 20.953 25.542 58.157 35.262 92.516 33.451 13.601-.717 26.951-2.968 40.157-6.012-29.182-1.05-58.638-10.916-76.225-32.34z" fill="#ddd"/><path d="m365.92 173.712c-55.36 8.686-115.439 2.574-164.214 29.029-19.603 10.633-36.836 26.328-58.803 31.205-27.658 6.141-55.978-6.445-78.997-21.962-15.772-10.632-31.108-23.881-36.161-41.596-5.837-20.462 3.448-48.825 19.014-64.23s36.126-35.821 56.789-44.26c34.779-14.203 70.12-20.665 106.731-29.752 41.088-10.198 85.768-5.525 126.67 4.78s78.218 41.666 82.167 81.571c1.249 12.621-1.128 26.136-9.58 36.041-10.314 12.087-27.454 16.638-43.616 19.174z" fill="#ffe46a"/><path d="m419.26 118.511c-.252-2.543-.642-5.05-1.157-7.52-1.643 5.565-4.226 10.822-8.088 15.338-10.76 12.584-28.653 17.315-45.525 19.947-57.793 9.017-120.524 2.617-171.431 30.146-20.46 11.064-38.443 27.403-61.374 32.471-28.872 6.381-58.448-6.744-82.492-22.92-7.717-5.192-15.32-10.992-21.781-17.578.158.67.287 1.342.477 2.008 5.053 17.714 14.984 33.634 30.757 44.265 23.02 15.518 56.083 32.08 83.741 25.939 21.966-4.877 39.754-16.303 59.358-26.936 48.775-26.455 107.332-22.806 162.691-31.492 16.162-2.536 35.881-10.425 46.194-22.512 8.452-9.905 9.879-28.535 8.63-41.156z" fill="#ffcd00"/><path d="m280.54 201.169-3.144-46.551.143-.029s-9.201-54.038-35.555-80.626c-21.02-21.207-42.469-39.97-42.469-39.97l-48.508 11.999s41.778 38.351 59.261 63.846c14.158 20.647 18.678 45.714 19.679 52.436l-.02.003s4.899 39.617 4.422 41.312.836 67.61.836 67.61l43.691-13.907s2.402-17.348 2.524-24.566-.86-31.557-.86-31.557z" fill="#3d4432"/><path d="m449.559 252.927-.705-3.421c-3.204-15.548-18.546-25.647-34.093-22.443l-3.421.705c-15.548 3.204-25.647 18.546-22.443 34.093l.705 3.421c3.204 15.548 18.546 25.647 34.093 22.443l3.421-.705c15.548-3.203 25.647-18.545 22.443-34.093z" fill="#d45c20"/><path d="m452.011 317.874-.705-3.421c-3.204-15.548-18.546-25.647-34.093-22.443l-3.421.705c-15.548 3.204-25.647 18.546-22.443 34.093l.705 3.421c3.204 15.548 18.546 25.647 34.093 22.443l3.421-.705c15.547-3.203 25.647-18.545 22.443-34.093z" fill="#ec7b30"/><path d="m340.745 302.814-.024-3.493c-.109-15.874-13.187-28.772-29.06-28.663l-3.493.024c-15.874.109-28.772 13.187-28.663 29.06l.024 3.493c.02 2.846.463 5.594 1.257 8.191-15.153.919-27.215 13.654-27.109 29.006l.024 3.493c.109 15.874 13.187 28.772 29.06 28.663l3.493-.024c15.874-.109 28.772-13.187 28.663-29.06l-.024-3.493c-.02-2.846-.463-5.594-1.257-8.191 15.153-.919 27.215-13.654 27.109-29.006z" fill="#e55525"/><path d="m265.929 325.226-.705-3.421c-3.204-15.548-18.546-25.647-34.093-22.443l-3.421.705c-15.548 3.204-25.647 18.546-22.443 34.093l.705 3.421c3.204 15.548 18.546 25.647 34.093 22.443l3.421-.705c15.547-3.204 25.647-18.546 22.443-34.093z" fill="#d45c20"/><path d="m385.644 281.24-.744-3.609c-3.379-16.4-19.562-27.053-35.962-23.673l-3.609.744c-1.089.224-2.15.509-3.186.843.758-7.301-.87-14.891-5.168-21.481l-2.192-3.361c-9.961-15.275-30.608-19.622-45.883-9.662l-3.361 2.192c-13.718 8.946-18.615 26.51-12.256 41.062-4.562-1.462-9.541-1.815-14.543-.784l-3.421.705c-15.548 3.204-25.647 18.546-22.443 34.093l.705 3.421c3.204 15.548 18.546 25.647 34.093 22.443l3.421-.705c15.548-3.204 25.647-18.546 22.443-34.093l-.705-3.421c-.088-.425-.188-.844-.293-1.26 8.935 3.892 19.434 3.819 28.508-.865-.054 2.252.135 4.54.608 6.835l.744 3.609c3.379 16.4 19.562 27.053 35.962 23.673l3.609-.744c16.399-3.38 27.052-19.562 23.673-35.962z" fill="#f26c24"/><path d="m326.09 344.633c-59.523.41-113.856 5.093-150.815-11.458-2.833 8.046-.594 19.321-.53 28.634l4.772 62.57c4.242 36.057 19.212 41.499 60.449 53.556.398.116.812.193 1.209.313 4.811 1.46 40.151 11.352 108.554 3.929 59.047-6.408 98.097-33.406 98.097-33.406 31.285-20.15 27.289-52.848 27.043-88.553l-1.591-48.253c-.064-9.313-2.889-10.552-5.833-18.559-36.728 17.058-81.833 50.817-141.355 51.227z" fill="#444d38"/><g fill="#ec7b30"><path d="m218.806 314.593-.705-3.421c-3.204-15.548-18.546-25.647-34.093-22.443l-3.421.705c-15.548 3.204-25.647 18.546-22.443 34.093l.705 3.421c3.204 15.548 18.546 25.647 34.093 22.443l3.421-.705c15.548-3.203 25.647-18.545 22.443-34.093z"/><path d="m369.898 318.784-.749-3.637c-3.406-16.528-19.715-27.264-36.243-23.858l-3.637.749c-16.528 3.406-27.264 19.715-23.858 36.243l.749 3.637c3.406 16.528 19.715 27.264 36.242 23.858l3.637-.749c16.529-3.406 27.265-19.715 23.859-36.243z"/><path d="m410.31 230.637-.705-3.421c-3.204-15.548-18.546-25.647-34.093-22.443l-3.421.705c-15.548 3.204-25.647 18.546-22.443 34.093l.705 3.421c3.204 15.548 18.546 25.647 34.093 22.443l3.421-.705c15.547-3.204 25.647-18.546 22.443-34.093z"/></g><path d="m419.913 313.972c-.114-16.586-13.778-30.062-30.363-29.948l-3.65.025c-16.586.114-30.062 13.778-29.948 30.363l.032 4.632c.114 16.586 13.778 30.062 30.363 29.948l3.65-.025c16.586-.114 30.062-13.778 29.948-30.363z" fill="#f24d20"/><path d="m267.672 245.389c-.109-15.874-13.187-28.772-29.06-28.663l-3.493.024c-15.874.109-28.772 13.187-28.663 29.06l.024 3.493c.109 15.874 13.187 28.772 29.06 28.663l3.493-.024c15.874-.109 28.772-13.187 28.663-29.06z" fill="#ed6623"/><path d="m471.472 292.678c-.109-15.874-13.187-28.772-29.06-28.663l-3.493.024c-15.874.109-28.772 13.187-28.663 29.06l.024 3.493c.109 15.874 13.187 28.772 29.06 28.663l3.493-.024c15.874-.109 28.772-13.187 28.663-29.06z" fill="#e55525"/><path d="m428.777 274.4c-.109-15.874-13.187-28.772-29.06-28.663l-3.493.024c-15.874.109-28.772 13.187-28.663 29.06l.024 3.493c.109 15.874 13.187 28.772 29.06 28.663l3.493-.024c15.874-.109 28.772-13.187 28.663-29.06z" fill="#eb6523"/><path d="m374.576 247.765c-.109-15.874-13.187-28.772-29.06-28.663l-3.493.024c-15.874.109-28.772 13.187-28.663 29.06l.024 3.493c.109 15.874 13.187 28.772 29.06 28.663l3.493-.024c15.874-.109 28.772-13.187 28.663-29.06z" fill="#f24d20"/><path d="m242.832 276.481c-.109-15.874-13.187-28.772-29.06-28.663l-3.493.024c-15.874.109-28.772 13.187-28.663 29.06l.024 3.493c.109 15.874 13.187 28.772 29.06 28.663l3.493-.024c15.874-.109 28.772-13.187 28.663-29.06z" fill="#f24d20"/><path d="m293.986 248.741-.705-3.421c-3.204-15.548-18.546-25.647-34.093-22.443l-3.421.705c-15.548 3.204-25.647 18.546-22.443 34.093l.705 3.421c3.204 15.548 18.546 25.647 34.093 22.443l3.421-.705c15.547-3.203 25.647-18.545 22.443-34.093z" fill="#ec7b30"/><circle cx="225.577" cy="235.537" fill="#f7c2a9" r="8.552"/><path d="m217.079 262.643c.033 4.723-3.77 8.579-8.493 8.611-4.723.033-8.579-3.77-8.611-8.493-.033-4.723 3.77-8.579 8.493-8.611 4.723-.033 8.578 3.77 8.611 8.493zm226.467 12.044c-4.723.033-8.526 3.888-8.493 8.611s3.888 8.526 8.611 8.493 8.526-3.888 8.493-8.611-3.888-8.526-8.611-8.493zm-21.766-38.924c-4.723.033-8.526 3.888-8.493 8.611s3.888 8.526 8.611 8.493 8.526-3.888 8.493-8.611-3.888-8.525-8.611-8.493zm-48.324 70.25c-4.723.033-8.526 3.888-8.493 8.611s3.888 8.526 8.611 8.493 8.526-3.888 8.493-8.611-3.888-8.526-8.611-8.493z" fill="#f48165"/><path d="m388.194 218.843c.033 4.723-3.77 8.579-8.493 8.611s-8.579-3.77-8.611-8.493c-.033-4.723 3.77-8.579 8.493-8.611 4.723-.033 8.579 3.769 8.611 8.493zm-86.089 5.952c-4.723.033-8.526 3.888-8.493 8.611s3.888 8.526 8.611 8.493 8.526-3.888 8.493-8.611c-.033-4.722-3.888-8.525-8.611-8.493z" fill="#f4b994"/><path d="m184.138 308.891c.033 4.723-3.77 8.579-8.493 8.611-4.723.033-8.579-3.77-8.611-8.493s3.77-8.579 8.493-8.611 8.579 3.77 8.611 8.493zm155.186-81.644c-4.723.033-8.526 3.888-8.493 8.611s3.888 8.526 8.611 8.493 8.526-3.888 8.493-8.611c-.032-4.723-3.888-8.525-8.611-8.493zm52.878 30.696c-4.723.033-8.526 3.888-8.493 8.611s3.888 8.526 8.611 8.493 8.526-3.888 8.493-8.611c-.032-4.723-3.888-8.526-8.611-8.493zm-64.973 46.325c-4.723.033-8.526 3.888-8.493 8.611s3.888 8.526 8.611 8.493 8.526-3.888 8.493-8.611-3.888-8.526-8.611-8.493z" fill="#f6caae"/><circle cx="256.145" cy="241.325" fill="#efa06f" r="8.552"/></svg>