<svg viewBox="0 0 64 64" xmlns="http://www.w3.org/2000/svg"><circle cx="32" cy="32" fill="#e5efef" r="23"/><path d="m49 7v2" fill="none" stroke="#4c241d" stroke-linecap="round" stroke-linejoin="round" stroke-width="2"/><path d="m49 13v2" fill="none" stroke="#4c241d" stroke-linecap="round" stroke-linejoin="round" stroke-width="2"/><path d="m45 11h2" fill="none" stroke="#4c241d" stroke-linecap="round" stroke-linejoin="round" stroke-width="2"/><path d="m51 11h2" fill="none" stroke="#4c241d" stroke-linecap="round" stroke-linejoin="round" stroke-width="2"/><path d="m60.082 25.667a1.069 1.069 0 1 1 -1.069-1.067 1.07 1.07 0 0 1 1.069 1.067z" fill="#4c241d"/><path d="m9.082 46.667a1.069 1.069 0 1 1 -1.069-1.067 1.07 1.07 0 0 1 1.069 1.067z" fill="#4c241d"/><g stroke="#4c241d" stroke-linecap="round" stroke-linejoin="round" stroke-width="2"><circle cx="4.5" cy="56.5" fill="none" r="2.5"/><path d="m27 21.257v-15.257h-5v15.257a7.975 7.975 0 0 0 -6 7.722v29.577a2.444 2.444 0 0 0 2.443 2.444h12.113a2.444 2.444 0 0 0 2.444-2.444v-29.577a7.976 7.976 0 0 0 -6-7.722z" fill="#6b4f5b"/><path d="m16 33h17v21h-17z" fill="#fff"/><path d="m13.5 37a7.5 7.5 0 0 0 6.631-4h-13.262a7.5 7.5 0 0 0 6.631 4z" fill="#f53e28"/><path d="m20.131 26h-13.262a7.483 7.483 0 0 0 0 7h13.262a7.483 7.483 0 0 0 0-7z" fill="#ffce56"/><path d="m13.5 22a7.5 7.5 0 0 0 -6.631 4h13.262a7.5 7.5 0 0 0 -6.631-4z" fill="#f53e28"/><path d="m22 6h5v13h-5z" fill="#e66353"/><path d="m22 12.5h5" fill="none"/><path d="m45 49v12" fill="none"/><path d="m41 61h8" fill="none"/><path d="m50 31h-10l-1.636 9h13.272z" fill="#fff"/><path d="m38.364 40-.214 1.173a5.846 5.846 0 0 0 -.05 2.027 7 7 0 0 0 13.8 0 5.846 5.846 0 0 0 -.048-2.026l-.216-1.174z" fill="#e66353"/><circle cx="24.5" cy="46.5" fill="#e66353" r="2.059"/><path d="m28.676 42.825a2.059 2.059 0 1 1 -2.058-2.059 2.058 2.058 0 0 1 2.058 2.059z" fill="#e66353"/><circle cx="22.5" cy="42.825" fill="#e66353" r="2.059"/><path d="m24 41a4.373 4.373 0 0 1 3-4" fill="none"/></g></svg>